<?xml  version="1.0" encoding="UTF-8"?>
<!DOCTYPE svg PUBLIC "-//W3C//DTD SVG 1.0//EN" "http://www.w3.org/TR/2001/REC-SVG-20010904/DTD/svg10.dtd" >
<svg xmlns="http://www.w3.org/2000/svg" >
<metadata>
<version>1.0</version>
<id><![CDATA[New Baskerville W01 Italic]]></id>
<vendor>Monotype Imaging Inc.</vendor>
<credits>
<name>Fonts.com WebFonts</name>
<URL>http://webfonts.fonts.com</URL>
<role>Home of the Web fonts</role>
</credits>
<license>
<URL>http://webfonts.fonts.com/Legal</URL>
</license>
<copyright><![CDATA[Font software Copyright 1985, 1987, 1990, 1994, 2002 Adobe Systems Incorporated. Typeface designs Copyright 2008 International Typeface Corporation. All rights reserved.]]></copyright>
<trademark><![CDATA[ITC and New Baskerville are trademarks of International Typeface Corporation Registered in U.S. Patent and Trademark Office and may be registered in certain other jurisdictions.]]></trademark>
<licensee>
<name></name>
</licensee>
</metadata>
<defs >
<font horiz-adv-x="503" id="70b35ac5-da0e-4238-87ce-f67818f47e8e">
<font-face font-family="New Baskerville W01 Italic" panose-1="2 3 6 3 7 5 6 9 3 4" ascent="911" descent="-274" units-per-em="1000" alphabetic="0">
</font-face>
<missing-glyph horiz-adv-x="260" />

<glyph unicode="&#xA;" />
<glyph unicode="&#xD;" />
<glyph unicode=" " horiz-adv-x="260" />
<glyph unicode="!" horiz-adv-x="300" d="M202 207L269 594Q271 607 275 620T286 644T303 662T327 669Q347 669 359 657T372 625Q372 614 365 588T347 532T327 472T309 424L225 200L202 207ZM169 -13Q146 -13 130 2T114 41Q114 66 130 81T171 96Q194 96 208 80T223 41Q223 18 207 3T169 -13Z"  />
<glyph unicode="&quot;" horiz-adv-x="460" d="M415 414Q407 393 401 384T390 375Q383 375 383 383Q383 386 384 392T388 409L437 626Q439 636 442 647T451 669T465 686T487 693Q499 693 505 686T512 667Q512 655 506 637T494 606L415 414ZM259 414Q251 393 245 384T234 375Q227 375 227 383Q227 386 228 392T232 409L281 626Q283 636 286 647T295 669T309 686T331 693Q343 693 349 686T356 667Q356 655 350 637T338 606L259 414Z"  />
<glyph unicode="#" horiz-adv-x="520" d="M566 217H458L425 0H369L402 217H271L237 0H181L215 217H111V272H223L244 409H135V464H253L284 669H340L309 464H440L471 669H527L496 464H590V409H487L466 272H566V217ZM300 409L279 272H410L431 409H300Z"  />
<glyph unicode="$" horiz-adv-x="520" d="M357 743H391L372 667H384Q399 667 416 666T449 661L469 743H500L480 654Q494 650 512 641T546 620T573 593T584 560Q584 544 574 535T548 526Q531 526 521 536T509 573Q507 594 502 606T474 627L415 374Q442 354 466 336T508 296T536 247T547 182Q547 135 529 99T480 39T409 2T325 -13L293 -149H264L295 -13Q250 -10 218 -1L183 -149H152L188 7Q173 12 153 22T115 45T85 75T72 110Q72 126 82 138T109 151Q130 151 140 138T151 108Q152 79 158 62T194 35L270 362Q227 385 200 421T172 509Q172 544 186 571T223 619T277 651T339 666L357 743ZM223 25Q237 20 258 17T299 13L369 305L298 345L223 25ZM333 638Q315 635 297 627T265 606T243 577T234 539Q234 505 248 487T289 449L333 638ZM331 13Q359 13 385 25T431 57T463 103T475 158Q475 198 452 233T395 288L331 13ZM387 391L444 636Q434 639 419 641T393 643Q386 643 380 643T366 642L317 430L387 391Z"  />
<glyph unicode="%" horiz-adv-x="847" d="M287 -73H246L669 641L667 643Q639 628 612 616T550 604Q530 604 511 610T472 622Q483 587 483 553Q483 517 471 475T435 397T379 338T304 314Q270 314 242 326T193 359T162 409T150 472Q150 511 165 552T208 626T271 681T350 703Q386 703 407 692T446 669T487 645T548 634Q603 634 650 662T732 731H765L287 -73ZM371 673Q337 673 310 647T264 583T235 506T225 438Q225 421 230 404T245 374T269 352T303 344Q340 344 368 367T415 425T443 498T453 567Q453 586 449 605T434 639T409 663T371 673ZM689 -48Q656 -48 628 -37T580 -5T549 44T538 105Q538 146 553 188T596 263T660 318T742 340Q773 340 797 329T838 299T863 253T872 197Q872 158 861 115T826 36T768 -24T689 -48ZM755 310Q722 310 696 284T651 220T623 143T613 76Q613 40 632 11T692 -18Q728 -18 756 5T803 63T832 136T842 204Q842 223 837 242T821 276T794 300T755 310Z"  />
<glyph unicode="&amp;" horiz-adv-x="980" d="M818 290Q818 218 785 162T698 67T580 8T450 -13Q397 -13 342 0T242 41T169 114T140 220Q140 260 152 297T187 368T239 427T304 471Q302 482 301 492T299 516Q299 555 314 589T356 650T416 691T489 706Q501 706 515 704T542 697T564 682T573 657Q573 641 562 630T535 619Q521 619 513 626T497 642T477 658T443 666Q420 666 399 656T363 630T338 591T329 546Q329 528 333 516T349 489Q358 492 367 494T387 496Q397 496 407 494T427 487T442 473T448 453Q448 430 429 416T387 402Q360 402 344 415T311 448Q286 438 267 421T234 382T213 335T205 283Q205 227 232 187T302 122T395 84T494 72Q545 72 597 86T692 128T761 199T788 300Q788 329 778 349T749 381T708 398T659 404Q644 404 624 401T587 389T558 368T546 335Q546 325 551 317T567 309Q579 309 589 314T615 320Q630 320 642 311T654 285Q654 260 634 245T590 229Q556 229 536 250T516 305Q516 340 532 369T575 420T633 453T699 465Q741 465 783 459T867 453Q894 453 920 457T970 476Q994 490 1010 514T1027 567Q1027 589 1015 608T977 627Q965 627 959 619T944 601T925 583T893 574Q880 574 870 582T859 605Q859 619 868 631T890 653T920 667T951 673Q998 673 1027 644T1057 567Q1057 522 1036 487T982 429T907 394T826 382Q817 382 808 382T789 383Q803 363 810 339T818 290Z"  />
<glyph unicode="&apos;" horiz-adv-x="280" d="M246 414Q239 397 234 386T221 375Q214 375 214 384Q214 387 215 392T217 400L268 626Q270 636 273 647T282 669T296 686T318 693Q330 693 336 686T343 667Q343 655 337 636T325 606L246 414Z"  />
<glyph unicode="(" horiz-adv-x="340" d="M414 650Q353 599 310 535T240 398T199 248T186 93Q186 16 201 -54T255 -192L236 -204Q211 -166 190 -121T154 -28T130 70T121 164Q121 240 142 311T201 445T288 564T397 666L414 650Z"  />
<glyph unicode=")" horiz-adv-x="340" d="M66 -188Q127 -137 170 -73T240 64T281 214T294 368Q294 446 279 516T225 654L244 666Q268 628 289 583T325 490T350 392T359 298Q359 222 338 151T279 17T191 -102T83 -204L66 -188Z"  />
<glyph unicode="*" horiz-adv-x="500" d="M212 392Q196 392 185 404T174 432Q174 453 189 462T223 471Q238 471 253 468T283 465Q294 465 303 466T324 470Q325 470 330 471T341 473T350 477T355 482Q355 486 348 493T338 502Q320 519 309 528T274 546Q257 553 239 565T221 599Q221 615 233 626T261 637Q284 637 294 619T312 581Q319 562 326 548T348 518Q349 517 352 514T360 507T367 500T373 497Q376 497 379 506T386 527T391 550T393 567Q393 582 391 597T388 628Q388 645 398 660T428 676Q445 676 455 665T465 637Q465 622 457 610T439 586Q425 569 418 556T405 524Q403 519 401 508T398 492Q398 489 403 489Q408 489 414 490T426 493Q438 496 446 499T463 505T478 514T496 528Q510 539 522 547T549 555Q565 555 576 543T587 515Q587 494 572 485T538 475Q523 475 508 478T478 482Q466 482 457 481T437 477Q435 477 430 476T420 474T411 470T406 464Q406 462 411 457T424 443Q434 433 441 427T455 417T469 409T487 401Q496 397 505 393T522 382T535 367T540 348Q540 332 528 321T500 310Q477 310 467 328T449 366Q442 386 435 400T412 429Q411 430 408 433T401 440T394 447T388 450Q384 450 381 442T375 423Q372 412 370 402T368 380Q368 365 370 351T373 322Q373 316 372 308T366 291T353 276T333 270Q316 270 306 281T296 310Q296 324 304 336T322 361Q336 378 350 404T364 454Q364 458 357 458Q353 458 344 457T322 451T295 439T265 419Q254 409 241 401T212 392Z"  />
<glyph unicode="+" horiz-adv-x="520" d="M297 248V443H350V248H545V195H350V0H297V195H102V248H297Z"  />
<glyph unicode="&#x2c;" horiz-adv-x="280" d="M36 -143Q65 -129 89 -114T134 -73Q148 -56 155 -41T162 -5Q158 -7 152 -10T135 -13Q115 -13 101 1T87 36Q87 61 102 78T143 96Q160 96 172 88T193 68T206 41T210 11Q210 -22 194 -49T154 -99T100 -138T43 -165L36 -143Z"  />
<glyph unicode="-" horiz-adv-x="240" d="M297 245L290 192H59L67 245H297Z"  />
<glyph unicode="." horiz-adv-x="280" d="M156 -13Q133 -13 117 2T100 41Q100 65 116 80T156 96Q179 96 194 80T209 40Q209 19 193 3T156 -13Z"  />
<glyph unicode="/" horiz-adv-x="440" d="M541 693L98 -135H42L485 693H541Z"  />
<glyph unicode="0" horiz-adv-x="520" d="M286 -13Q238 -13 206 7T154 61T126 134T117 215Q117 288 139 360T198 495Q215 525 238 556T289 612T351 653T423 669Q468 669 500 651T552 602T582 534T592 457Q592 386 571 310T515 172Q498 142 475 109T422 49T359 5T286 -13ZM430 647Q390 647 361 622T309 561T273 485T248 413Q238 381 228 344T209 267T195 190T189 119Q189 98 194 78T211 43T239 19T280 9Q318 9 347 35T397 98T434 176T460 246Q471 279 482 316T501 393T515 470T520 544Q520 587 499 617T430 647Z"  />
<glyph unicode="1" horiz-adv-x="520" d="M374 230Q371 218 365 194T351 143T339 94T334 60Q334 46 341 38T361 26T393 21T437 20L431 -2Q419 -2 396 -1T349 0T304 1T275 2Q267 2 248 2T205 1T160 -1T126 -2L132 20Q144 20 158 21T186 24T211 30T230 41Q242 53 251 81T268 140L365 509Q366 515 368 523T372 541T375 557T377 569Q377 589 362 593T330 598Q329 598 323 598T307 598T288 597T268 596L273 619Q330 623 385 636T493 674L374 230Z"  />
<glyph unicode="2" horiz-adv-x="520" d="M477 -2Q462 0 447 1T418 2Q391 2 344 2T247 1T152 -1T82 -2V12Q106 36 134 65T193 124T254 184T312 242T362 291T399 327Q412 340 427 357T455 395T476 440T484 492Q484 546 451 576T365 607Q340 607 317 599T275 575T245 537T233 489Q233 462 239 442T245 417Q245 411 239 411Q232 411 226 421T214 445T206 476T203 507Q203 545 217 575T256 626T313 658T382 669Q421 669 455 658T515 625T554 571T569 498Q569 443 537 396T446 299Q440 294 421 279T368 236T287 169T175 73H397Q420 73 437 75T467 86T493 112T520 158H541L477 -2Z"  />
<glyph unicode="3" horiz-adv-x="520" d="M276 649Q333 669 391 669Q420 669 452 664T510 646T554 610T572 551Q572 519 558 495T520 453T470 421T417 396V394Q442 394 460 384T492 358T511 321T518 276Q518 237 503 202T462 138T405 86T340 47Q274 15 200 1T54 -13L61 12Q117 17 174 27T282 64Q310 78 336 99T383 145T416 201T428 266Q428 314 399 335T324 357Q292 357 265 351T230 345Q224 345 219 347T213 357Q213 364 219 368T233 375T249 377T263 379Q294 382 334 391T412 418T474 462T500 529Q500 548 491 560T467 580T435 591T401 594Q366 594 329 586T258 567L276 649Z"  />
<glyph unicode="4" horiz-adv-x="520" d="M451 278H488Q506 278 516 280T533 284T543 289T548 291Q552 291 552 287Q552 285 551 280T548 269L540 238H441L380 0H299L363 238H96L105 270L544 683H560L451 278ZM374 278L448 551L446 553L154 278H374Z"  />
<glyph unicode="5" horiz-adv-x="520" d="M249 498Q253 498 262 498T280 499T297 500T308 501Q347 501 383 493T448 465T492 415T509 339Q509 296 496 257T460 184T407 121T342 70Q274 26 201 9T49 -13L55 12Q122 20 185 37T306 94Q331 111 354 133T395 182T423 239T434 301Q434 336 423 359T392 395T345 414T288 420Q280 420 268 419T242 417T217 415T198 413L278 692Q320 677 357 668T440 658Q468 658 491 662T532 672T558 682T569 687Q572 687 572 684Q572 677 564 666T551 649Q533 629 509 616T459 596T404 586T349 583Q329 583 311 584T272 588L249 498Z"  />
<glyph unicode="6" horiz-adv-x="520" d="M613 658Q568 644 529 630T454 595T387 547T326 482Q299 447 276 403T236 312T209 215T199 122Q199 101 204 81T219 45T247 19T289 9Q330 9 361 36T415 102T448 186T459 265Q459 282 456 299T444 329T422 351T387 360Q363 360 346 348T316 321T294 294T279 282Q269 282 269 293Q269 303 277 315T290 334Q314 365 344 382T414 400Q480 400 514 358T549 253Q549 204 529 156T475 71T396 10T300 -13Q256 -13 223 4T166 49T131 115T119 193Q119 239 132 285T169 373T223 454T286 522Q354 585 435 623T608 676L613 658Z"  />
<glyph unicode="7" horiz-adv-x="520" d="M297 -13H181L468 414Q474 424 485 443T510 486T538 535T564 581H349Q308 581 291 579T264 569Q253 560 243 539T217 476H196L259 709H279Q280 698 281 684T293 663Q302 658 319 657T357 656H623L297 -13Z"  />
<glyph unicode="8" horiz-adv-x="520" d="M399 382Q449 405 484 444T519 542Q519 591 492 622T413 654Q363 654 331 621T298 537Q298 514 307 493T330 453T359 419T389 391L399 382ZM320 333Q290 321 264 303T218 260T187 206T175 142Q175 83 205 46T297 9Q328 9 352 20T394 52T421 98T431 155Q431 184 421 208T396 255T360 296T320 333ZM417 365Q454 328 482 285T511 187Q511 140 493 103T445 41T375 1T291 -13Q256 -13 223 -4T165 25T125 73T110 141Q110 183 127 215T172 273T234 316T302 349Q269 381 246 416T223 499Q223 540 240 573T285 629T349 664T423 676Q453 676 482 668T533 642T570 600T584 542Q584 506 569 478T529 429T476 393T417 365Z"  />
<glyph unicode="9" horiz-adv-x="520" d="M120 4Q164 17 203 32T278 67T345 115T406 180Q433 215 456 259T497 350T524 447T534 540Q534 561 529 581T513 617T485 643T444 653Q403 653 371 626T317 560T284 476T273 397Q273 379 276 362T288 332T310 310T345 302Q369 302 386 314T417 341T438 368T453 380Q463 380 463 369Q463 359 453 341T423 306T377 275T318 262Q252 262 218 304T183 409Q183 458 203 506T257 591T336 652T433 676Q476 676 510 659T567 613T602 547T614 469Q614 423 600 377T563 289T510 208T446 140Q379 77 298 39T125 -13L120 4Z"  />
<glyph unicode=":" horiz-adv-x="280" d="M241 322Q218 322 202 337T185 376Q185 399 201 415T241 431Q264 431 279 414T294 375Q294 354 278 338T241 322ZM156 -13Q133 -13 117 2T100 41Q100 65 116 80T156 96Q179 96 194 80T209 40Q209 19 193 3T156 -13Z"  />
<glyph unicode=";" horiz-adv-x="280" d="M36 -143Q65 -129 89 -114T134 -73Q148 -56 155 -41T162 -5Q160 -7 153 -10T135 -13Q115 -13 101 1T87 36Q87 61 102 78T143 96Q160 96 172 88T193 68T206 41T210 11Q210 -22 194 -49T154 -99T100 -138T43 -165L36 -143ZM241 322Q218 322 202 337T185 376Q185 399 201 415T241 431Q264 431 279 414T294 375Q294 354 278 338T241 322Z"  />
<glyph unicode="&lt;" horiz-adv-x="520" d="M142 247L502 414V360L203 221L502 86V36L142 198V247Z"  />
<glyph unicode="=" horiz-adv-x="520" d="M545 313V260H102V313H545ZM545 182V129H102V182H545Z"  />
<glyph unicode="&gt;" horiz-adv-x="520" d="M502 198L142 36V86L441 221L142 360V414L502 247V198Z"  />
<glyph unicode="?" horiz-adv-x="440" d="M407 219Q390 200 367 188T318 176Q283 176 263 200T242 256Q242 289 261 315T304 363L360 414Q374 427 389 440T416 470T435 503T443 542Q443 588 417 613T345 639Q327 639 310 634T280 618T258 592T250 558Q250 535 266 516T306 496Q311 496 318 499T325 508Q325 514 316 521T306 547Q306 561 316 570T340 580Q358 580 369 568T381 537Q381 507 357 489T305 471Q268 471 244 495T220 555Q220 582 230 603T259 639T300 661T350 669Q383 669 411 658T461 628T495 581T508 519Q508 494 500 471T477 428T446 390T410 357L377 329Q369 322 356 311T329 287T306 261T296 235Q296 222 305 214T328 206Q346 206 362 215T391 235L407 219ZM276 -13Q253 -13 237 2T221 41Q221 66 238 81T279 96Q302 96 316 80T330 41Q330 18 314 3T276 -13Z"  />
<glyph unicode="@" horiz-adv-x="720" d="M369 154Q392 154 410 165T444 194T470 233T489 273L544 405Q554 430 554 451Q554 471 544 487T507 503Q484 503 462 486T419 443T380 382T350 315T330 251T322 201Q322 181 335 168T369 154ZM443 -13Q378 -13 323 10T227 75T163 173T140 296Q140 370 168 437T246 556T360 638T498 669Q554 669 605 651T695 600T757 518T780 409Q780 348 757 297T699 207T622 148T539 126Q527 126 515 129T493 139T476 156T468 179Q443 156 415 141T351 126Q328 126 311 136T282 161T264 197T258 238Q258 284 276 335T325 429T398 500T489 529Q502 529 516 526T543 516T564 499T575 474H577L593 515H670L562 263Q548 231 541 210T533 175Q533 157 552 157Q580 157 612 176T673 228T719 306T738 405Q738 455 719 496T666 566T590 610T501 626Q434 626 378 601T280 531T216 426T193 298Q193 240 211 191T262 106T343 50T447 30Q486 30 525 40T598 70T663 116T714 179H753Q733 135 700 100T625 40T537 1T443 -13Z"  />
<glyph unicode="A" horiz-adv-x="640" d="M558 128Q559 121 561 109T565 83T571 59T578 41Q586 29 605 26T650 20L644 -2Q633 -2 613 -1T572 0T534 1T511 2Q506 2 489 2T452 1T412 -1T382 -2L387 20Q405 21 421 22T448 28T466 42T473 69Q473 83 471 99T467 129L445 273H251L207 190Q202 181 193 162T174 121T157 81T150 51Q150 40 158 34T179 25T205 21T231 20L225 -2Q216 -2 200 -1T167 0T134 1T111 2Q106 2 92 2T63 1T32 -1T9 -2L15 20Q40 24 57 31T93 58Q103 69 114 86T137 124T158 163T177 196L449 668H479L558 128ZM440 303L410 550H408L268 303H440Z"  />
<glyph unicode="B" horiz-adv-x="600" d="M258 159Q256 151 253 140T247 116T242 92T240 72Q240 54 247 44T267 29T293 22T322 20Q412 20 464 73T516 220Q516 262 502 286T463 323T409 339T347 343H308L258 159ZM358 -2Q349 -2 322 -2T264 0T207 1T172 2Q166 2 148 2T107 1T64 -1T32 -2L38 20Q71 20 90 25T121 43T139 75T154 122L262 526Q264 532 267 543T273 565T278 587T281 603Q281 615 274 622T254 632T226 637T193 638L199 660Q210 660 230 659T271 658T309 657T333 656Q346 656 362 656T394 658T420 659T433 660Q470 660 508 654T577 631T628 585T648 512Q648 471 629 443T581 396T516 367T446 353V351Q480 345 511 334T565 305T602 258T616 190Q616 138 594 102T535 42T453 9T358 -2ZM371 365Q411 365 444 374T502 403T539 456T553 533Q553 564 543 584T517 616T477 633T429 638Q419 638 406 635T387 623Q381 615 376 598T368 569L314 365H371Z"  />
<glyph unicode="C" horiz-adv-x="628" d="M601 -2H590L578 50Q553 32 530 20T482 1T432 -10T375 -13Q319 -13 273 5T195 58T144 138T126 241Q126 318 155 394T236 532T358 631T509 669Q533 669 553 666T592 656T629 639T668 617L703 653H713L675 467H655Q653 503 647 535T625 592T584 632T515 647Q468 647 429 625T357 566T300 482T260 386T235 288T226 202Q226 161 235 126T265 64T318 24T395 9Q445 9 480 26T543 70T591 134T633 209H654L601 -2Z"  />
<glyph unicode="D" horiz-adv-x="696" d="M199 660Q209 660 229 659T271 658T309 657T332 656Q347 656 380 658T451 660Q506 660 554 645T648 593Q696 554 719 500T742 385Q742 305 710 232T621 102Q589 72 557 52T491 20T419 3T341 -2Q331 -2 305 -2T250 0T195 1T158 2Q153 2 137 2T101 1T62 -1T32 -2L38 20Q70 20 89 25T120 42T139 73T154 122L262 526Q264 532 267 542T273 564T278 586T281 603Q281 616 274 623T254 633T225 637T193 638L199 660ZM267 185Q264 174 260 161T253 133T248 104T245 79Q245 58 254 46T278 28T310 21T344 20Q428 20 481 57T575 168Q607 228 624 297T642 435Q642 481 629 519T592 583T534 623T458 638Q451 638 441 638T422 637T404 635T391 631Q386 627 384 618T376 590L267 185Z"  />
<glyph unicode="E" horiz-adv-x="604" d="M38 20Q71 20 90 25T120 42T138 73T153 122L261 526Q262 532 265 542T271 564T276 585T278 601Q278 614 271 621T252 633T227 637T203 638L209 660Q216 660 231 659T263 658T299 657T334 656Q344 656 368 656T423 656T489 657T558 658T621 659T668 660L682 508H663Q652 547 639 572T607 612T567 632T518 638H385L313 366H390Q412 366 428 370T459 387T485 419T512 472H530L478 217H458Q459 230 459 242T460 266Q460 304 445 324T378 344H307L250 132Q246 119 243 106T240 79Q240 58 252 47T281 29T318 22T354 20H390Q435 20 467 28T523 55T565 101T603 170H626L580 -2Q557 -2 521 -2T442 -1T355 0T274 1T209 2T172 2Q166 2 148 2T107 1T64 -1T32 -2L38 20Z"  />
<glyph unicode="F" horiz-adv-x="529" d="M254 130Q252 124 250 114T244 93T239 71T237 55Q237 30 260 26T326 20L320 -2Q308 -2 286 -1T241 0T198 1T171 2Q165 2 147 2T107 1T64 -1T32 -2L38 20Q70 20 88 24T118 39T137 70T154 122L268 526Q270 532 273 542T279 564T284 586T287 603Q287 628 262 633T199 638L205 660Q215 660 233 659T272 658T310 657T337 656Q349 656 373 656T428 656T493 657T560 658T620 659T665 660L679 500H659Q650 543 635 570T598 612T545 632T472 638Q458 638 434 637T394 633L319 368H401Q421 368 436 373T465 390T491 422T516 473H536L485 218H465Q466 232 466 239T466 249Q466 297 452 321T389 346H312L254 130Z"  />
<glyph unicode="G" horiz-adv-x="680" d="M716 645H727L689 460H669Q668 551 628 599T525 647Q475 647 434 625T360 567T301 483T260 386T235 288T226 199Q226 159 236 124T267 64T320 24T396 9Q483 9 532 58T581 194Q581 210 576 218T559 231T532 237T495 240L500 262Q510 262 528 261T567 260T605 259T632 258Q641 258 659 258T697 259T736 261T765 262L759 240Q754 240 745 240T727 238T710 235T698 228Q693 223 689 211T680 186T673 159T668 139Q661 113 655 89T648 38Q641 39 633 39T620 40Q590 40 567 32T518 14T462 -4T387 -13Q331 -13 284 4T201 53T146 132T126 236Q126 312 154 389T233 528T353 630T505 669Q534 669 557 665T601 653T642 632T687 605L716 645Z"  />
<glyph unicode="H" horiz-adv-x="780" d="M248 130Q246 124 243 113T237 91T232 70T229 53Q229 30 251 26T316 20L309 -2Q297 -2 276 -1T231 0T187 1T160 2Q155 2 139 2T102 1T62 -1T32 -2L38 20Q69 20 87 24T117 39T137 69T154 122L269 526Q271 532 274 542T280 564T285 586T288 603Q288 615 281 622T262 632T234 637T200 638L206 660Q217 660 238 659T281 658T322 657T347 656Q353 656 371 656T412 657T455 659T487 660L481 638Q452 637 430 634T396 613Q391 605 386 592T375 563T364 530T354 497L314 351H647L694 526Q695 532 698 542T704 563T709 585T711 601Q711 627 687 632T622 638L628 660Q638 660 658 659T698 658T735 657T757 656Q765 656 785 656T830 657T877 659T912 660L906 638Q877 637 856 634T821 613Q816 607 811 594T800 564T789 530T779 497L681 130Q679 124 676 114T670 92T665 70T662 53Q662 30 684 26T749 20L742 -2Q731 -2 710 -1T667 0T626 1T601 2Q595 2 577 2T538 1T496 -1T464 -2L470 20Q502 20 521 25T552 41T571 72T586 122L639 321H306L248 130Z"  />
<glyph unicode="I" horiz-adv-x="340" d="M243 130Q241 124 238 114T232 92T227 70T224 53Q224 30 246 26T311 20L304 -2Q293 -2 272 -1T229 0T188 1T163 2Q157 2 139 2T100 1T58 -1T26 -2L32 20Q65 20 84 25T114 41T132 72T148 122L264 526Q265 532 268 542T274 563T279 585T281 601Q281 627 257 632T192 638L198 660Q208 660 228 659T268 658T305 657T327 656Q335 656 356 656T401 657T447 659T482 660L476 638Q448 637 427 634T391 613Q386 607 380 592T367 558T357 523T349 497L243 130Z"  />
<glyph unicode="J" horiz-adv-x="300" d="M198 660Q208 660 228 659T268 658T305 657T327 656Q331 656 351 656T396 657T445 659T482 660L476 638Q450 637 427 634T391 613Q386 606 380 592T369 562T358 528T349 497L247 96Q233 42 217 -18T178 -129Q149 -194 99 -232T-25 -270Q-41 -270 -60 -267T-97 -255T-126 -234T-138 -201Q-138 -184 -128 -173T-99 -161Q-79 -161 -70 -173T-61 -203Q-61 -207 -61 -211T-62 -219Q-62 -233 -48 -240T-20 -248Q4 -248 21 -238T51 -213T72 -177T86 -137L264 526Q265 532 268 542T274 563T279 585T281 601Q281 627 257 632T192 638L198 660Z"  />
<glyph unicode="K" horiz-adv-x="660" d="M249 130Q247 124 245 114T240 93T235 71T233 55Q233 30 255 26T321 20L315 -2Q304 -2 283 -1T239 0T197 1T171 2Q165 2 147 2T107 1T64 -1T32 -2L37 20Q70 20 89 24T119 40T137 71T152 122L260 526Q265 546 271 567T277 601Q277 614 271 621T252 632T224 637T189 638L195 660Q205 660 225 659T267 658T305 657T329 656Q336 656 356 656T400 657T446 659T480 660L474 638Q447 637 425 634T389 613Q384 606 378 592T367 560T356 526T348 497L310 356L483 468Q503 481 529 500T578 539T616 577T632 609Q632 619 624 625T605 634T581 637T558 638L564 660Q572 660 587 659T619 658T650 657T671 656Q676 656 691 656T725 657T759 659T785 660L779 638Q758 636 741 629T708 612Q694 603 678 588T628 547L403 375L539 169Q548 156 558 140T581 106T604 74T626 48Q643 30 662 26T708 20L702 -2Q690 -2 669 -1T625 0T583 1T557 2Q551 2 533 2T494 1T452 -1T420 -2L426 20Q438 20 451 21T474 26T492 35T499 51Q499 59 493 72T478 98T462 124T450 142L327 330L300 318L249 130Z"  />
<glyph unicode="L" horiz-adv-x="600" d="M592 -2Q556 -2 513 -2T426 -1T338 0T259 1T198 2T165 2Q159 2 142 2T105 1T65 -1T32 -2L38 20Q70 20 89 25T120 41T139 72T154 122L263 526Q265 532 268 542T274 564T279 586T282 603Q282 615 275 622T256 632T228 637T194 638L200 660Q210 660 230 659T270 658T308 657T331 656Q339 656 359 656T402 657T448 659T483 660L477 638Q456 638 431 635T392 612Q386 605 380 590T368 557T358 522T350 496L257 151Q252 134 247 112T242 72Q242 54 251 44T272 29T300 22T327 20H378Q426 20 461 25T525 45T574 89T615 166H637L592 -2Z"  />
<glyph unicode="M" horiz-adv-x="880" d="M745 2Q740 2 723 2T683 1T640 -1T608 -2L614 20Q643 22 660 25T688 36T704 60T714 104L801 594L799 596L446 0H430L323 601H321L226 243Q222 229 216 206T204 159T194 111T189 75Q189 56 194 46T211 30T237 23T274 20L268 -2Q259 -2 242 -1T205 0T169 1T144 2Q138 2 124 2T92 1T59 -1T35 -2L41 20Q73 20 96 30T136 72Q144 88 152 111T168 158T183 206T195 248L294 589Q297 599 297 605Q297 617 287 623T263 633T235 637T213 638L218 660Q225 660 240 659T270 658T299 657T317 656Q322 656 334 656T359 657T385 659T403 660L497 142L807 660Q827 658 851 657T888 656Q894 656 907 656T936 657T966 659T989 660L983 638Q952 638 934 632T906 614T890 583T881 537L804 84Q803 79 803 76T803 68Q803 52 809 43T826 29T854 23T891 20L886 -2Q875 -2 854 -1T810 0T769 1T745 2Z"  />
<glyph unicode="N" horiz-adv-x="700" d="M577 -18L300 540L222 250Q218 235 212 211T200 162T190 113T186 74Q186 55 193 45T212 29T240 23T274 20L268 -2Q259 -2 243 -1T208 0T173 1T150 2Q143 2 128 2T95 1T61 -1T35 -2L40 20Q73 24 96 32T136 72Q145 88 153 112T170 163T185 215T197 260L280 572Q268 595 260 608T241 627T216 635T174 638L180 660Q187 660 200 659T227 658T252 657T267 656Q271 656 281 656T302 657T324 659T341 660L607 123L695 450Q698 463 702 480T710 515T716 550T719 580Q719 600 713 611T695 628T667 635T633 638L639 660Q647 660 662 659T694 658T725 657T746 656Q752 656 767 656T800 657T833 659T858 660L853 638Q825 638 807 629T777 606T758 571T745 528L600 -18H577Z"  />
<glyph unicode="O" horiz-adv-x="708" d="M510 669Q567 669 612 650T690 596T740 514T758 412Q758 336 727 260T643 124T518 25T367 -13Q309 -13 264 6T189 58T142 138T126 241Q126 292 139 343T178 442T237 531T315 603T407 651T510 669ZM523 647Q476 647 436 624T362 562T304 474T261 373T235 272T226 184Q226 152 233 121T257 64T300 24T364 9Q412 9 452 32T526 94T583 181T624 281T649 382T658 471Q658 500 650 531T625 588T583 630T523 647Z"  />
<glyph unicode="P" horiz-adv-x="577" d="M390 307Q384 307 372 307T346 308T320 310T301 311L252 130Q250 124 247 113T241 91T236 70T233 53Q233 30 256 26T320 20L313 -2Q302 -2 281 -1T238 0T196 1T170 2Q164 2 146 2T107 1T64 -1T32 -2L38 20Q70 20 89 24T119 40T138 71T154 122L262 526Q264 532 267 542T273 564T278 586T281 603Q281 627 256 632T193 638L199 660Q208 660 224 659T257 658T290 657T313 656Q321 656 338 656T374 658T409 659T432 660Q560 660 623 620T686 504Q686 453 663 416T601 355T507 319T390 307ZM373 331Q418 331 456 343T524 379T569 439T586 523Q586 554 575 576T544 611T500 631T448 638Q443 638 434 638T416 636T398 631T385 621Q382 616 379 603T374 584L307 336Q314 335 324 334T343 333T361 332T373 331Z"  />
<glyph unicode="Q" horiz-adv-x="708" d="M681 -270Q652 -270 626 -263T571 -241T510 -201T436 -141Q402 -112 367 -97T287 -82Q255 -82 231 -90T179 -115Q175 -117 167 -122T153 -127Q143 -127 138 -121T132 -104Q132 -92 143 -87T163 -80Q176 -77 186 -74T204 -68T222 -61T244 -49L314 -11Q218 11 172 78T126 242Q126 318 155 394T235 532T355 631T507 669Q565 669 611 652T688 602T737 524T754 421Q754 380 745 340T720 261T682 186T633 120Q577 57 513 26T363 -13L272 -58V-60H310Q371 -60 422 -79T521 -122T618 -165T723 -185Q749 -185 766 -178T795 -161T811 -144T819 -136Q821 -136 821 -138T822 -143Q822 -157 815 -178T790 -220T746 -255T681 -270ZM365 9Q412 9 452 33T524 96T580 185T621 287T646 388T654 476Q654 508 646 539T621 594T578 632T515 647Q469 647 430 624T358 563T302 477T260 379T235 280T226 193Q226 160 233 128T257 69T300 26T365 9Z"  />
<glyph unicode="R" horiz-adv-x="665" d="M590 -13Q560 -13 540 -2T507 26T489 66T483 111Q483 115 483 130T485 163T486 196T487 214Q487 250 480 271T457 304T419 320T362 324Q360 324 353 324T337 324T318 323T301 322L249 130Q247 124 244 114T238 92T233 70T230 53Q230 30 252 26T317 20L310 -2Q299 -2 279 -1T237 0T197 1T171 2Q165 2 147 2T107 1T64 -1T32 -2L37 20Q70 20 89 25T119 41T137 72T152 122L260 526Q265 546 272 568T279 603Q279 627 254 632T191 638L197 660Q206 660 224 659T261 658T298 657T325 656Q333 656 351 656T390 658T429 659T455 660Q492 660 534 656T613 637T674 593T699 514Q699 467 674 434T610 380T528 349T446 334V332Q487 320 513 305T553 267T573 214T580 144Q580 129 581 109T589 70T606 40T639 27Q660 27 674 40T702 67L720 56Q710 41 696 28T664 6T627 -8T590 -13ZM307 345Q326 345 349 346T396 349T445 355T490 367Q540 384 569 423T599 516Q599 550 588 573T558 610T512 631T456 638Q450 638 441 638T421 635T402 630T389 622Q379 610 369 573L307 345Z"  />
<glyph unicode="S" horiz-adv-x="484" d="M547 647H560L524 477H507Q506 513 498 544T474 598T433 634T372 647Q350 647 331 640T297 619T274 587T265 546Q265 512 282 484T326 430T382 377T438 321T481 255T499 173Q499 131 483 97T440 38T377 0T300 -13Q251 -13 201 6T115 61L83 20H70L103 206H123Q126 167 135 131T162 68T211 25T287 9Q314 9 336 19T374 46T400 86T409 135Q409 173 392 203T350 261T295 314T240 369T197 431T180 508Q180 546 195 576T234 626T291 658T360 669Q405 669 443 655T517 611L547 647Z"  />
<glyph unicode="T" horiz-adv-x="653" d="M412 130Q410 124 407 114T401 92T396 70T393 53Q393 30 416 26T480 20L473 -2Q462 -2 441 -1T397 0T355 1T328 2Q322 2 304 2T264 1T222 -1T190 -2L196 20Q227 20 246 24T277 40T296 71T312 122L449 638Q397 638 355 636T278 619T217 575T171 491H152L196 660Q211 660 236 660T292 659T354 658T415 657T466 656T498 656Q514 656 552 656T633 657T715 659T775 660V491H755Q747 540 735 569T700 614T641 633T547 638L412 130Z"  />
<glyph unicode="U" horiz-adv-x="680" d="M243 526Q245 532 248 542T254 564T259 586T262 603Q262 615 255 622T236 632T208 637T174 638L180 660Q190 660 208 659T247 658T285 657T312 656Q319 656 339 656T382 657T428 659T462 660L456 638Q429 637 407 633T371 612Q365 604 359 589T347 556T337 522T329 496L268 267Q260 238 253 210T246 153Q246 120 258 95T291 52T339 26T398 17Q452 17 488 36T550 87T591 160T621 246Q628 270 641 317T668 416T691 514T701 581Q701 600 694 611T676 628T650 635T619 638L625 660Q638 659 654 659T686 658T713 657T732 656Q754 656 787 657T845 660L839 638Q809 638 791 630T761 605T742 568T728 520L676 334Q658 271 639 209T588 97T507 18T380 -13Q339 -13 299 -4T225 26T172 80T151 160Q151 192 162 230T182 300L243 526Z"  />
<glyph unicode="V" horiz-adv-x="580" d="M221 567Q218 591 213 604T199 624T175 633T134 638L140 660Q150 660 169 659T209 658T246 657T269 656Q275 656 293 656T332 657T375 659T407 660L401 638Q387 637 372 636T344 630T323 617T315 594Q315 589 315 579T317 556T320 529T323 502L371 105H373Q383 122 406 161T457 251T517 357T573 462T614 549T631 600Q631 613 625 620T608 631T585 636T558 638L563 660Q571 660 586 659T618 658T647 657T664 656Q667 656 681 656T713 657T747 659T773 660L767 638Q737 634 716 622T677 584Q664 566 651 544T625 499T600 452T576 409Q560 380 540 344T498 271T458 199T423 139L328 -18H300L221 567Z"  />
<glyph unicode="W" horiz-adv-x="840" d="M310 -18H277L217 530Q214 561 211 581T199 614T174 632T129 638L135 660Q143 660 162 659T201 658T239 657T261 656Q267 656 284 656T323 657T364 659T396 660L390 638Q377 636 362 636T335 633T314 620T306 592Q306 584 306 566T310 515L348 127H350L525 500Q529 509 536 523T550 552T562 581T567 604Q567 615 560 621T542 631T516 636T486 638L491 660Q501 660 519 659T557 658T592 657T612 656Q616 656 632 656T669 657T708 659T737 660L732 638Q711 636 697 634T673 625T659 606T654 573Q654 559 655 533T660 479L697 120H699L829 393Q836 408 849 436T876 496T900 555T910 597Q910 622 889 629T836 638L842 660Q848 660 862 659T891 658T919 657T937 656Q942 656 955 656T984 657T1014 659T1036 660L1032 638Q1005 633 987 618T954 582T929 538T908 493L661 -18H629L566 518H564L310 -18Z"  />
<glyph unicode="X" horiz-adv-x="640" d="M562 142Q567 131 574 116T589 86T605 58T621 38Q633 26 649 24T688 20L683 -2Q672 -2 652 -1T610 0T570 1T546 2Q541 2 524 2T487 1T447 -1T417 -2L422 20Q451 21 472 25T493 52Q493 60 490 71T482 94T472 117T464 135L394 291L322 212Q312 201 294 181T257 137T225 91T211 54Q211 43 217 37T235 27T261 22T290 20L285 -2Q276 -2 258 -1T221 0T186 1T163 2Q158 2 144 2T112 1T79 -1T54 -2L60 20Q83 23 99 29T130 44T156 67T184 97L380 323L280 543Q273 559 266 575T253 601Q239 622 220 629T167 638L173 660Q183 660 202 659T242 658T279 657T301 656Q307 656 325 656T365 657T408 659T440 660L434 638Q426 637 414 637T390 634T370 625T362 605Q362 596 366 581T377 551T389 520T400 496L448 389L522 472Q531 482 547 499T578 537T604 577T616 611Q616 628 597 632T545 638L552 660Q560 660 576 659T609 658T640 657T659 656Q664 656 679 656T713 657T748 659T774 660L768 638Q751 636 735 631T703 616Q692 609 680 598T655 575T632 549T611 526L461 361L562 142Z"  />
<glyph unicode="Y" horiz-adv-x="580" d="M314 299L241 546Q236 562 230 582T216 615Q206 629 190 633T150 638L156 660Q166 660 184 659T222 658T256 657T276 656Q280 656 296 656T333 657T372 659T402 660L396 638Q381 638 368 637T346 633T330 623T324 604Q324 591 328 576L401 323Q410 335 429 356T472 405T520 461T565 518T599 567T612 602Q612 614 606 621T590 631T566 636T538 638L544 660Q551 660 565 659T595 658T622 657T639 656Q643 656 656 656T685 657T716 659T740 660L734 638Q715 638 701 631T669 603Q663 596 651 581T631 556L407 284L359 104Q355 90 352 77T349 55Q349 30 372 25T437 20L432 -2Q420 -2 398 -1T352 0T308 1T279 2Q274 2 257 2T219 1T178 -1T147 -2L152 20Q184 20 203 24T233 40T252 70T267 122L314 299Z"  />
<glyph unicode="Z" horiz-adv-x="574" d="M207 20H324Q375 20 414 24T486 43T546 87T600 166H620L556 -2Q535 -2 501 -2T426 -1T343 0T261 1T191 2T142 2Q137 2 128 2T109 1T90 -1T75 -2L538 638H451Q405 638 371 633T309 614T256 574T203 507H183L244 660Q262 660 292 660T358 659T431 658T502 657T560 656T597 656Q603 656 613 656T636 657T658 659T674 660L207 20Z"  />
<glyph unicode="[" horiz-adv-x="380" d="M477 666L468 636H358L182 -105H294L285 -135H108L297 666H477Z"  />
<glyph unicode="\" horiz-adv-x="280" d="M167 693L392 -135H336L111 693H167Z"  />
<glyph unicode="]" horiz-adv-x="380" d="M218 -135H38L47 -105H157L333 636H221L230 666H407L218 -135Z"  />
<glyph unicode="^" horiz-adv-x="520" d="M158 285L318 656H367L530 285H475L341 593L213 285H158Z"  />
<glyph unicode="_" horiz-adv-x="500" d="M500 -75V-125H0V-75H500Z"  />
<glyph unicode="`" horiz-adv-x="340" d="M391 476L276 548Q265 555 252 564T239 589Q239 602 248 613T271 624Q281 624 290 618T309 602T325 584T339 568L419 476H391Z"  />
<glyph unicode="a" horiz-adv-x="500" d="M370 409Q345 409 320 390T272 341T229 274T195 199T172 130T163 77Q163 66 165 54T174 32T189 16T212 9Q239 9 261 24T302 63T334 113T359 161Q368 180 378 205T397 256T411 309T417 356Q417 376 405 392T370 409ZM453 418H524L480 299Q473 280 462 246T440 173T422 99T414 41Q414 34 416 26T427 17Q439 17 454 33T482 72T507 118T524 153L545 144Q534 122 522 95T493 44T456 4T406 -13Q379 -13 363 2T346 44Q346 59 349 73T355 101L353 103Q341 82 326 62T293 25T252 -2T204 -13Q179 -13 158 -4T122 22T99 59T91 105Q91 137 101 174T130 247T174 316T229 375T293 416T362 431Q390 431 409 417T438 377L453 418Z"  />
<glyph unicode="b" horiz-adv-x="420" d="M328 666Q310 615 297 574T271 496T246 420T220 336L222 334Q233 352 246 369T275 400T311 422T354 431Q380 431 399 421T432 393T453 354T460 307Q460 257 438 201T379 98T292 19T190 -13Q142 -13 113 15T83 91Q83 105 87 124T96 165T107 205T118 239L216 554Q219 565 223 581T228 605Q228 616 222 622T207 630T187 633T166 634L172 656L328 666ZM196 9Q223 9 247 27T293 75T331 142T361 217T381 287T388 342Q388 352 385 364T377 386T362 402T341 409Q316 409 292 389T247 338T208 268T176 191T156 119T148 64Q148 42 160 26T196 9Z"  />
<glyph unicode="c" horiz-adv-x="360" d="M381 125Q368 99 351 75T312 31T264 -1T206 -13Q177 -13 156 -3T120 26T98 69T91 120Q91 151 100 186T126 255T166 322T217 378T277 416T343 431Q356 431 369 428T394 417T412 400T419 374Q419 358 409 345T381 332Q367 332 357 342T347 367Q347 379 352 385T358 397Q358 405 350 407T336 409Q311 409 289 390T247 340T212 271T186 197T169 129T163 80Q163 54 176 32T219 9Q245 9 266 21T305 52T336 93T361 137L381 125Z"  />
<glyph unicode="d" horiz-adv-x="500" d="M353 409Q328 409 305 390T260 341T221 273T191 198T171 129T163 76Q163 52 175 31T216 9Q242 9 265 28T309 79T346 148T374 224T392 294T399 346Q399 367 389 388T353 409ZM462 553Q463 558 465 565T470 581T473 597T475 609Q475 625 456 628T402 634L409 656L566 666Q542 581 521 503T476 338Q449 238 432 165T414 46Q414 38 416 28T430 17Q442 17 457 34T486 75T510 121T526 155L548 147Q540 126 527 99T496 47T456 5T408 -13Q379 -13 364 7T349 54Q349 71 352 87T358 118L356 120Q345 98 331 75T299 32T258 0T207 -13Q179 -13 158 -3T121 25T99 66T91 115Q91 161 112 216T168 319T251 399T350 431Q372 431 388 419T415 389L462 553Z"  />
<glyph unicode="e" horiz-adv-x="363" d="M381 116Q366 93 348 70T307 29T259 -1T203 -13Q150 -13 121 18T91 101Q91 132 100 169T127 242T168 313T221 373T283 415T351 431Q382 431 402 413T423 362Q423 323 399 292T340 236T265 195T196 165L180 158Q173 136 168 113T163 66Q163 43 174 26T212 9Q236 9 257 20T298 50T333 89T363 129L381 116ZM188 185Q215 197 246 215T305 258T350 313T368 376Q368 391 360 400T337 409Q319 409 302 397T270 364T241 320T218 270T200 223T188 185Z"  />
<glyph unicode="f" horiz-adv-x="280" d="M201 49Q190 5 175 -50T135 -154T72 -236T-20 -270Q-33 -270 -48 -267T-75 -257T-96 -239T-105 -212Q-105 -201 -98 -193T-78 -184Q-62 -184 -56 -194T-47 -216T-37 -238T-12 -248Q4 -248 18 -236T44 -205T65 -161T80 -112L210 395H128L135 417H216Q227 454 242 497T279 578T334 641T415 666Q428 666 442 663T470 652T491 633T500 606Q500 595 494 586T475 577Q458 577 451 588T440 613Q437 627 432 635T410 644Q381 644 361 616T328 551T306 475T291 417H378L371 395H286L201 49Z"  />
<glyph unicode="g" horiz-adv-x="460" d="M443 -129Q443 -170 423 -197T373 -241T305 -263T233 -270Q202 -270 167 -264T102 -244T52 -205T32 -142Q32 -111 53 -90T106 -68Q117 -68 126 -71T146 -80Q123 -88 110 -106T97 -149Q97 -179 110 -198T144 -228T190 -243T241 -248Q263 -248 289 -244T337 -230T373 -201T388 -155Q388 -131 377 -117T347 -94T306 -83T262 -76Q242 -73 212 -69T155 -53T107 -24T87 24Q87 46 97 62T122 90T157 108T196 119Q167 136 148 164T129 226Q129 263 145 300T187 366T249 413T324 431Q386 431 424 384Q439 400 459 413T502 426Q525 426 545 411T565 372Q565 356 554 344T526 332Q513 332 504 340T493 362Q491 371 490 378T478 386Q465 386 455 378T436 361Q447 334 447 308Q447 267 433 230T393 164T332 118T255 99Q244 99 226 98T191 93T160 81T147 57Q147 35 169 26T224 11T295 1T366 -17T421 -56T443 -129ZM263 121Q293 121 314 146T349 205T369 277T375 337Q375 363 361 386T318 409Q289 409 267 384T231 325T209 254T201 194Q201 166 216 144T263 121Z"  />
<glyph unicode="h" horiz-adv-x="500" d="M389 245Q393 255 398 271T409 305T418 338T422 366Q422 380 414 388T392 397Q365 397 340 377T291 324T248 253T212 176T184 104T166 52L149 0H82L241 545Q245 559 249 575T253 602Q253 624 235 629T192 634H182L188 656L350 666L241 296L243 294Q258 315 275 338T313 381T358 414T411 427Q453 427 467 403T482 343Q482 307 472 269T450 199L406 81Q403 73 399 59T394 35Q394 17 409 17Q424 17 440 32T471 68T498 110T516 144L538 135Q529 113 515 88T483 40T443 2T393 -13Q358 -13 347 6T335 53Q335 71 339 91T348 131T359 166T369 192L389 245Z"  />
<glyph unicode="i" horiz-adv-x="280" d="M185 264Q188 271 194 287T206 321T216 355T221 381Q221 389 217 395T204 401Q192 401 178 388T151 357T126 321T110 292L90 303Q102 323 115 345T145 387T181 418T224 431Q253 431 269 410T286 363Q286 345 281 325T269 285T254 246T239 210L207 129Q205 123 200 110T190 82T181 54T177 34Q177 28 181 23T192 17Q206 17 222 31T254 65T281 105T299 137L319 127Q310 107 296 83T263 38T223 2T177 -13Q146 -13 129 8T112 59Q112 75 116 92T128 127T142 162T156 194L185 264ZM284 565Q266 565 253 577T239 609Q239 629 251 642T284 656Q304 656 317 643T330 609Q330 591 317 578T284 565Z"  />
<glyph unicode="j" horiz-adv-x="260" d="M80 282Q90 302 106 328T144 377T189 415T239 431Q262 431 275 416T288 380Q288 362 283 334T269 274T253 213T239 165L195 16Q170 -68 147 -123T99 -211T46 -257T-16 -270Q-28 -270 -42 -268T-69 -259T-89 -242T-97 -217Q-97 -206 -90 -198T-71 -190Q-56 -190 -51 -199T-41 -219T-31 -239T-8 -248Q10 -248 24 -234T53 -189T83 -112T117 -1L193 258Q207 307 213 334T220 376Q220 382 217 386T205 391Q195 391 179 376T147 340T118 300T99 270L80 282ZM290 565Q271 565 258 577T244 609Q244 629 257 642T290 656Q310 656 322 643T335 609Q335 591 322 578T290 565Z"  />
<glyph unicode="k" horiz-adv-x="440" d="M189 172L139 0H64L216 576Q218 584 220 594T223 613Q223 627 205 630T147 634L154 656L317 666Q309 636 300 606T283 543L229 329L231 327Q244 346 260 364T296 398T337 422T386 431Q399 431 412 427T436 414T454 395T461 370Q461 341 443 319T400 280T346 248T296 221Q344 207 359 182T375 116Q375 98 373 76T371 41Q371 17 386 17Q397 17 407 28T427 55T445 90T461 125L481 116Q471 93 461 70T437 29T405 -1T361 -13Q331 -13 314 7T297 56Q297 82 299 107T302 158Q302 180 296 191T268 208L189 172ZM196 200Q221 210 254 226T318 264T368 312T389 370Q389 384 380 392T356 401Q327 401 301 379T254 325T218 259T196 200Z"  />
<glyph unicode="l" horiz-adv-x="260" d="M233 287Q227 266 217 234T197 166T180 99T173 46Q173 37 177 27T192 17Q204 17 220 32T250 69T277 111T294 143L317 132Q305 109 291 84T260 37T220 1T171 -13Q136 -13 119 10T101 66Q101 80 105 101T115 146T127 190T139 226L241 561Q243 569 247 581T251 602Q251 624 231 628T179 634L185 656L352 666L233 287Z"  />
<glyph unicode="m" horiz-adv-x="720" d="M625 265Q629 275 634 289T644 317T652 346T655 372Q655 382 650 391T633 400Q616 400 598 385T563 350T533 310T512 277Q474 212 450 142T402 0H331L383 159Q389 177 399 207T418 269T434 330T441 376Q441 384 437 392T423 401Q399 401 374 374T326 311T286 238T261 180L194 0H127L174 157Q181 182 189 212T204 272T215 327T219 368Q219 372 219 377T217 388T212 397T204 401Q190 401 176 385T148 347T124 304T110 270L90 278Q98 300 110 327T140 377T179 415T228 431Q257 431 270 409T284 361Q284 338 280 316T274 272L276 270Q289 293 305 321T342 373T388 414T444 431Q473 431 489 411T506 364Q506 344 502 326T492 291L494 289Q506 309 522 334T557 380T600 416T651 431Q683 431 699 407T715 354Q715 338 712 319T703 281T691 242T680 208L642 101Q640 96 637 88T632 70T627 52T625 37Q625 29 628 23T641 17Q655 17 671 32T702 69T729 112T747 146L766 135Q758 115 745 90T713 42T673 3T627 -13Q598 -13 582 7T565 55Q565 72 569 92T579 133T592 174T605 210L625 265Z"  />
<glyph unicode="n" horiz-adv-x="560" d="M201 0H126L141 43Q152 76 166 121T193 212T215 301T224 369Q224 377 222 389T205 401Q190 401 175 385T147 346T123 302T106 268L86 275Q96 299 109 326T139 377T177 416T227 431Q258 431 273 411T288 362Q288 346 285 326T280 288L277 270L279 268Q292 293 309 321T348 374T398 415T457 431Q491 431 513 407T535 350Q535 316 524 276T501 203L483 155Q468 115 459 87T449 41Q449 32 454 25T470 17Q485 17 501 32T531 68T556 110T572 143L593 133Q583 112 570 87T538 40T498 2T450 -13Q418 -13 401 7T384 58Q384 72 388 91T397 129T409 167T421 199L439 248Q443 260 449 275T461 306T471 338T475 367Q475 381 466 391T441 401Q421 401 401 387T362 352T330 310T306 272Q275 218 252 155T210 31L201 0Z"  />
<glyph unicode="o" horiz-adv-x="420" d="M230 -13Q164 -13 128 27T91 133Q91 162 98 195T120 262T155 325T202 379T258 417T322 431Q357 431 383 418T426 382T451 330T460 269Q460 225 443 176T394 84T321 15T230 -13ZM231 9Q258 9 280 27T320 75T350 140T371 213T384 281T388 335Q388 362 373 385T327 409Q301 409 279 391T238 343T206 278T183 205T168 137T163 84Q163 50 179 30T231 9Z"  />
<glyph unicode="p" horiz-adv-x="480" d="M272 334L274 332Q286 351 299 368T328 400T363 422T409 431Q436 431 456 421T491 393T513 352T520 304Q520 257 501 202T448 99T369 19T269 -13Q245 -13 223 2T193 40H191L154 -95Q152 -103 147 -120T137 -157T128 -193T124 -219Q124 -230 130 -236T146 -246T168 -251T192 -252L185 -274Q177 -274 162 -273T130 -272T99 -271T78 -270Q73 -270 60 -270T32 -271T2 -273T-20 -274L-14 -252Q3 -251 16 -248T38 -237Q43 -232 48 -220T57 -194T65 -167T71 -146L210 362L178 340Q156 325 130 300T87 229L67 237Q73 260 83 278T105 310T134 338T168 365Q186 378 197 388T217 410T230 435T242 472L270 582L339 572L272 334ZM396 409Q371 409 348 390T304 341T267 274T238 200T220 131T213 77Q213 66 216 54T225 32T240 16T263 9Q288 9 311 28T355 77T393 144T422 219T441 288T448 342Q448 353 445 365T435 386T419 402T396 409Z"  />
<glyph unicode="q" horiz-adv-x="440" d="M351 409Q327 409 304 390T259 341T221 274T190 200T170 133T163 82Q163 71 165 58T172 34T186 16T209 9Q235 9 259 28T304 78T342 147T372 222T391 293T398 348Q398 370 387 389T351 409ZM437 431H502L355 -95Q352 -106 347 -125T336 -165T326 -203T322 -225Q322 -245 342 -248T397 -252L391 -274Q381 -274 364 -273T328 -272T296 -271T279 -270Q276 -270 262 -270T230 -271T196 -273T170 -274L177 -252Q196 -251 211 -249T234 -242Q238 -239 242 -231T250 -214T257 -195T262 -179L340 95L338 97Q327 77 314 58T283 23T245 -3T199 -13Q170 -13 150 -4T116 23T97 63T91 112Q91 158 111 214T166 318T247 398T345 431Q404 431 420 370H422L437 431Z"  />
<glyph unicode="r" horiz-adv-x="370" d="M86 284Q93 301 106 326T137 374T174 414T214 431Q232 431 244 423T265 402T276 372T280 339Q280 331 278 311T272 272L274 270Q282 291 295 319T325 371T365 413T414 431Q434 431 452 420T470 385Q470 370 459 359T431 348Q417 348 408 356T398 380V387Q398 401 391 401Q383 401 374 393T355 372T339 349T328 331Q300 277 278 215T237 95L205 0H131L174 139Q182 165 188 194T200 251T208 303T211 346Q211 364 209 382T195 401Q186 401 173 385T146 347T121 306T107 276L86 284Z"  />
<glyph unicode="s" horiz-adv-x="340" d="M149 313Q149 342 160 364T191 401T235 423T287 431Q301 431 318 428T349 418T374 398T384 368Q384 357 377 350T359 342Q340 342 337 352T331 375T322 398T288 409Q262 409 242 393T221 348Q221 321 239 296T279 244T319 185T337 114Q337 83 325 59T291 19T242 -5T184 -13Q166 -13 145 -9T105 4T75 29T63 68Q63 82 68 93T89 105Q101 105 110 97T119 75Q119 68 118 62T116 48Q116 37 122 30T138 18T158 11T178 9Q213 9 239 27T265 84Q265 110 247 137T207 192T167 251T149 313Z"  />
<glyph unicode="t" horiz-adv-x="280" d="M316 557L273 418H351L344 396H266L258 370Q254 358 247 332T230 272T211 202T193 134T180 77T175 44Q175 33 178 25T192 17Q207 17 222 33T252 70T277 114T294 148L314 137Q303 116 290 90T260 41T221 3T170 -13Q141 -13 122 6T103 54Q103 70 106 88T114 126T124 165T135 199L192 396H113L121 418H200L247 557H316Z"  />
<glyph unicode="u" horiz-adv-x="560" d="M235 109Q231 98 226 80T221 50Q221 34 231 26T257 17Q282 17 306 37T352 87T390 148T415 203L490 426H564L526 300Q515 265 505 231T488 163T475 100T470 46Q470 38 473 28T487 17Q499 17 513 32T541 69T564 111T577 143L599 135Q591 114 580 89T552 41T515 3T469 -13Q436 -13 419 6T402 54Q402 63 403 86T407 124L405 126Q391 104 375 80T339 35T294 1T240 -13Q205 -13 181 10T156 70Q156 95 161 117T175 163L193 222Q204 260 217 302T231 379Q231 387 229 394T218 401Q204 401 188 385T156 346T128 301T109 267L88 277Q98 299 113 325T147 375T189 415T240 431Q255 431 266 425T285 408T297 384T301 357Q301 330 293 299T277 241L235 109Z"  />
<glyph unicode="v" horiz-adv-x="480" d="M449 309Q449 314 449 326T447 350T446 373T445 387Q445 405 452 418T480 431Q503 431 511 412T520 373Q520 339 512 297T487 212T448 129T394 57T327 6T249 -13Q201 -13 169 16T137 95Q137 125 148 157T177 221T212 282T246 337L244 339Q232 334 218 329T189 323Q169 323 154 332T127 341Q116 341 111 332T106 313V306Q106 303 105 300T100 297Q95 297 92 301T87 312T85 324T84 334Q84 362 100 381T146 400Q161 400 171 395T193 380Q199 374 206 369T221 363Q234 363 251 370T273 392Q275 398 277 404T282 417T289 427T302 431Q309 431 313 426T318 413Q318 403 308 386T293 361Q262 308 243 242T224 114Q224 99 226 82T234 51T251 27T283 17Q302 17 319 27T352 51T379 83T400 114Q426 159 437 208T449 309Z"  />
<glyph unicode="w" horiz-adv-x="640" d="M145 406Q160 406 170 400T188 387T203 373T218 367Q245 367 255 377T269 399T276 421T293 431Q300 431 305 427T310 415Q310 409 307 402T299 386T290 371T283 360Q269 338 255 306T228 239T209 170T201 110Q201 97 203 81T210 51T226 27T254 17Q283 17 305 41T343 102T372 182T394 263Q398 278 402 294T410 325T418 352T426 372Q436 390 455 390Q469 390 479 381T489 356Q489 342 479 308T457 234T435 153T425 86Q425 75 427 63T435 41T449 24T471 17Q494 17 513 31T549 68T578 119T598 176T611 230T616 273Q616 294 614 311T608 349Q606 357 605 365T603 383Q603 402 610 416T641 431Q656 431 664 423T677 404T683 379T684 355Q684 325 677 286T655 205T620 125T573 56T515 6T446 -13Q404 -13 383 13T361 78H359Q335 41 298 14T215 -13Q173 -13 144 11T114 80Q114 112 128 148T164 220T208 289T248 349L246 351Q231 342 218 335T185 327Q165 327 154 335T126 344Q115 344 112 335T108 317V308Q108 301 103 301Q98 301 95 305T89 316T87 329T86 340Q86 367 101 386T145 406Z"  />
<glyph unicode="x" horiz-adv-x="460" d="M264 200L213 343Q208 357 204 364T189 371Q178 371 171 362T159 339T151 311T146 286L124 293Q126 311 132 335T150 380T178 416T218 431Q236 431 247 422T267 398Q280 378 289 350T306 298L316 268L334 292Q343 305 359 328T395 374T435 414T473 431Q490 431 503 419T516 389Q516 375 511 361T497 333T478 307T458 285L441 298Q449 312 462 331T476 368Q476 376 471 381T458 386Q449 386 436 375T410 348T385 317T368 293L327 239L375 108Q379 98 383 88T392 68T402 53T414 47Q424 47 432 57T446 80T457 107T465 129L489 121Q484 104 475 81T452 37T421 2T383 -13Q368 -13 358 -5T339 14T326 38T316 61L276 170L188 40Q176 23 158 5T116 -13Q97 -13 86 1T74 32Q74 58 91 86T124 135L146 121Q138 108 126 89T114 55Q114 47 118 40T131 32Q145 32 156 47T176 72L264 200Z"  />
<glyph unicode="y" horiz-adv-x="380" d="M99 284Q99 279 99 267T101 245H79Q78 256 78 270T77 289Q77 305 80 329T93 376T117 415T154 431Q173 431 190 413T220 370T243 320T256 279Q274 218 281 155T291 29H293Q306 55 319 86T343 149T360 214T367 277Q367 307 360 325T344 356T328 378T320 400Q320 414 329 422T352 431Q368 431 377 421T391 396T396 365T397 336Q397 240 367 146T284 -37Q267 -66 239 -105T176 -182T103 -244T28 -270Q13 -270 1 -263T-12 -242Q-12 -219 4 -212T43 -205H70Q99 -205 122 -195T168 -159Q197 -126 212 -91T227 -8Q227 17 224 49T217 114T206 180T193 236Q191 243 184 265T168 311T148 352T128 371Q119 371 114 360T105 333T100 304T99 284Z"  />
<glyph unicode="z" horiz-adv-x="360" d="M324 366Q341 366 349 378T366 407Q369 415 373 421T388 427Q394 427 398 424T403 412Q403 404 395 393T379 374L131 90Q142 92 156 94T185 96Q208 96 226 92T260 84T289 76T314 72Q333 72 344 78T361 93T369 110T371 123Q371 128 372 132T379 137Q383 137 386 132T391 119T393 104T394 92Q394 47 369 17T298 -13Q270 -13 248 -2T202 27Q188 38 168 51T128 64Q110 64 99 55T82 28Q78 17 73 9T57 0Q49 0 45 5T41 17Q41 34 61 56T105 105L320 347L319 349Q305 347 290 345T257 342Q229 342 210 349T168 357Q151 357 143 343T134 314V306Q134 299 128 299Q120 299 116 314T111 346Q111 362 118 377T137 405T166 424T203 431Q227 431 243 421T272 399T297 376T324 366Z"  />
<glyph unicode="{" horiz-adv-x="440" d="M217 164Q224 189 224 208Q224 235 210 247T171 268L173 269Q197 275 213 283T241 303T259 333T272 373L312 525Q322 562 334 588T363 632T405 658T464 666H482L480 664Q457 660 441 649T413 622T394 590T383 558L339 394Q333 370 325 350T305 313T274 286T228 269H226V267Q252 262 268 249T284 203Q284 180 275 147L229 -26Q221 -55 221 -74Q221 -96 232 -110T273 -133L271 -135Q212 -134 187 -119T162 -67Q162 -44 171 -9L217 164Z"  />
<glyph unicode="|" horiz-adv-x="380" d="M310 750V-250H257V750H310Z"  />
<glyph unicode="}" horiz-adv-x="440" d="M328 557Q331 568 333 580T336 606Q336 627 325 641T284 664L286 666Q344 665 369 650T395 599Q395 582 393 570T386 540L340 367Q333 343 333 324Q333 296 347 284T386 263L384 262Q360 256 344 248T316 228T298 198T285 158L245 6Q235 -31 223 -57T193 -101T151 -127T93 -135H75L77 -133Q100 -129 116 -118T144 -92T162 -61T173 -31L218 137Q224 161 232 181T252 217T283 245T329 262H331V264Q305 269 289 282T273 328Q273 349 282 384L328 557Z"  />
<glyph unicode="~" horiz-adv-x="520" d="M227 280Q253 280 281 271T338 250Q367 239 392 229T438 219Q454 219 466 224T489 239T509 259T526 283L566 257Q554 240 542 224T514 196T481 176T440 168Q415 168 387 177T329 199Q302 210 276 219T226 229Q191 229 170 208T132 159L92 185Q104 204 117 221T147 252T182 272T227 280Z"  />
<glyph unicode="&#xA0;" horiz-adv-x="260" />
<glyph unicode="&#xA1;" horiz-adv-x="300" d="M230 211L170 -133Q167 -147 165 -167T156 -205T137 -237T105 -250Q85 -250 73 -238T60 -206Q60 -193 69 -162T91 -94T115 -25T133 23L206 218L230 211ZM263 431Q286 431 301 416T317 377Q317 353 301 338T261 322Q238 322 223 339T208 378Q208 400 224 415T263 431Z"  />
<glyph unicode="&#xA2;" horiz-adv-x="520" d="M463 564Q476 564 489 560T513 548T531 529T538 503Q538 488 528 476T501 464Q487 464 477 473T466 496Q466 509 471 514T476 528Q476 536 468 538T454 542L321 147Q326 146 329 146T335 146Q359 146 380 157T418 186T451 226T479 269L499 257Q486 231 469 206T429 161T380 129T322 117H313L270 -13H232L276 122Q253 128 235 141T204 173T185 214T178 260Q178 306 198 356T253 450T332 523T423 562L463 676H501L463 564ZM416 535Q383 525 354 488T302 404T266 310T253 233Q253 210 260 188T287 156L416 535Z"  />
<glyph unicode="&#xA3;" horiz-adv-x="520" d="M147 12Q175 12 192 33T220 77Q205 87 189 95T153 103Q132 103 117 91T101 56Q101 36 115 24T147 12ZM405 -13Q360 -13 321 9T247 57Q230 28 204 8T143 -13Q113 -13 92 7T71 57Q71 75 79 89T101 112T130 127T162 133Q180 133 197 129T232 119Q236 139 238 170T241 234T242 293T245 333H120L129 365H249Q256 405 266 455T298 547Q326 601 372 635T482 669Q498 669 518 665T557 651T587 627T600 592Q600 577 591 564T564 550Q538 550 530 565T516 598T502 632T466 647Q443 647 426 633T395 595T373 541T358 480T348 418T341 365H486L477 333H335Q327 273 312 215T269 103Q305 88 342 76T419 64Q458 64 480 76T516 104T535 131T550 144Q560 144 560 134Q560 117 551 97T532 63Q510 30 480 9T405 -13Z"  />
<glyph unicode="&#xA4;" horiz-adv-x="520" d="M191 175Q167 204 155 239T142 312Q142 348 154 382T191 445L141 494L168 521L217 472Q245 495 280 508T351 521Q389 521 424 510T489 472L538 521L565 494L516 445Q540 416 552 381T564 310Q564 274 553 239T516 175L565 125L538 99L489 148Q458 122 423 110T351 98Q279 98 217 148L168 99L141 125L191 175ZM352 138Q386 138 416 152T469 189T505 243T519 309Q519 343 506 374T471 429T419 467T354 481Q320 481 290 467T237 430T201 376T187 311Q187 277 200 246T235 191T288 153T352 138Z"  />
<glyph unicode="&#xA5;" horiz-adv-x="520" d="M398 327L380 260H533L524 228H371L343 127Q341 122 339 114T334 95T330 76T328 62Q328 48 334 40T351 28T377 22T412 20L406 -2Q395 -2 375 -1T333 0T292 1T266 2Q258 2 238 2T196 1T152 -1T120 -2L126 20Q157 22 182 26T225 49Q237 63 248 102L283 228H138L147 260H292L308 317L295 359H169L178 391H286L246 525Q243 535 239 549T230 577T218 604T204 624Q196 632 189 634T171 638L177 660Q186 660 203 659T239 658T274 657T299 656Q307 656 324 656T361 657T398 659T425 660L419 638Q403 638 388 637T360 630T340 613T332 582Q332 571 336 552T345 512T356 472T365 441L391 358L494 472Q503 481 518 498T549 535T575 572T586 602Q586 623 569 629T525 638L531 660Q538 660 553 659T583 658T612 657T630 656Q635 656 647 656T674 657T702 659T723 660L717 638Q701 636 687 629T661 611T638 589T618 567Q609 556 590 535T548 489T501 437T459 391H576L567 359H428L398 327Z"  />
<glyph unicode="&#xA6;" horiz-adv-x="380" d="M310 675V325H257V675H310ZM310 175V-175H257V175H310Z"  />
<glyph unicode="&#xA7;" horiz-adv-x="500" d="M449 211Q449 226 443 242T427 275T406 305T386 331Q368 353 345 371T291 390Q265 390 247 373T228 329Q228 314 233 299T246 270T263 242T281 217Q290 206 301 194T325 171T353 153T383 146Q411 146 430 164T449 211ZM262 -139Q239 -139 217 -132T176 -112T147 -79T135 -34Q135 -11 149 6T187 23Q206 23 220 12T234 -20Q234 -36 226 -48T204 -68Q200 -70 196 -73T192 -81Q192 -90 200 -97T220 -108T243 -115T260 -117Q299 -117 329 -94T360 -29Q360 -11 352 6T330 43T296 85T254 133Q209 185 190 221T171 296Q171 321 178 343T200 383T234 410T281 420Q294 420 304 417T325 410L327 412Q302 438 282 471T262 543Q262 574 274 597T305 637T351 661T406 669Q427 669 449 663T490 645T520 615T532 572Q532 548 518 533T479 517Q459 517 448 529T436 560Q436 581 451 596Q456 601 461 605T466 618Q466 625 460 630T445 640T426 645T407 647Q373 647 346 626T319 568Q319 552 323 538T338 508T367 470T413 418Q464 360 485 321T506 242Q506 219 499 197T478 156T444 127T399 116Q387 116 376 118T355 124L353 122Q380 95 398 65T417 -7Q417 -39 404 -63T369 -105T320 -130T262 -139Z"  />
<glyph unicode="&#xA8;" horiz-adv-x="400" d="M275 492Q255 492 241 506T226 540Q226 560 240 575T275 590Q295 590 309 576T324 541Q324 521 310 507T275 492ZM439 492Q419 492 405 506T390 540Q390 560 404 575T439 590Q459 590 473 576T488 541Q488 521 474 507T439 492Z"  />
<glyph unicode="&#xA9;" horiz-adv-x="748" d="M465 -13Q395 -13 334 14T226 87T152 196T125 330Q125 400 152 462T225 571T333 645T465 672Q534 672 595 645T703 572T776 463T803 330Q803 259 776 197T703 88T596 14T465 -13ZM465 29Q525 29 578 52T671 116T734 212T757 330Q757 393 734 447T672 542T579 606T465 630Q405 630 352 607T258 543T195 448T171 330Q171 267 194 212T258 117T351 53T465 29ZM596 141H581L570 174Q550 158 523 146T460 133Q382 133 343 183T303 329Q303 373 315 409T348 471T400 511T468 525Q497 525 520 517T564 495L573 515H586L593 403H576Q566 451 541 479T475 507Q444 507 424 492T391 451T373 393T368 328Q368 295 373 263T390 207T422 167T473 151Q497 151 515 162T546 192T567 232T580 274H596V141Z"  />
<glyph unicode="&#xAA;" horiz-adv-x="327" d="M331 649Q308 649 285 626T244 571T215 506T203 453Q203 439 209 430T230 420Q246 420 259 429T284 451T304 480T320 509Q326 520 332 534T343 564T352 593T356 618Q356 632 350 640T331 649ZM380 661H435L405 585Q397 565 390 544T376 502T365 465T361 436Q361 425 369 425Q376 425 384 434T400 456T415 483T427 508L447 498Q428 455 407 428T353 400Q332 400 322 410T311 435Q311 442 312 447T314 456Q299 434 277 417T225 400Q192 400 171 420T150 473Q150 503 164 537T203 600T260 649T326 669Q359 669 374 644L380 661Z"  />
<glyph unicode="&#xAB;" horiz-adv-x="480" d="M279 81Q281 79 282 75T284 68Q284 61 278 61Q274 61 271 65T265 71L155 202L313 329Q315 331 324 338T337 346Q344 346 344 339Q344 335 336 327T325 316L216 200L279 81ZM443 81Q445 79 446 75T448 68Q448 61 442 61Q438 61 435 65T429 71L319 202L477 329Q479 331 488 338T501 346Q508 346 508 339Q508 335 500 327T489 316L380 200L443 81Z"  />
<glyph unicode="&#xAC;" horiz-adv-x="520" d="M492 260H102V313H545V54H492V260Z"  />
<glyph unicode="&#xAD;" horiz-adv-x="240" d="M297 245L290 192H59L67 245H297Z"  />
<glyph unicode="&#xAE;" horiz-adv-x="748" d="M465 -13Q395 -13 334 14T226 87T152 196T125 330Q125 400 152 462T225 571T333 645T465 672Q534 672 595 645T703 572T776 463T803 330Q803 259 776 197T703 88T596 14T465 -13ZM465 29Q525 29 578 52T671 116T734 212T757 330Q757 393 734 447T672 542T579 606T465 630Q405 630 352 607T258 543T195 448T171 330Q171 267 194 212T258 117T351 53T465 29ZM640 153Q628 154 612 154T590 155Q585 155 573 155T550 153Q547 158 540 169T525 193T508 218T496 237Q487 251 474 272T452 305Q445 316 440 319T421 322H415V216Q415 191 425 180T465 168V153Q455 153 442 153T417 154T395 155T384 155Q382 155 374 155T355 155T332 154T309 153V168Q336 169 347 179T358 211V467Q358 490 349 500T309 513V528Q331 527 354 527T385 527Q394 527 416 527T466 528Q489 528 511 524T550 509T577 480T588 434Q588 389 560 365T496 338L576 219Q591 196 604 183T640 168V153ZM432 340Q450 340 466 343T495 357T515 384T523 429Q523 471 502 491T448 512Q423 512 419 507T415 487V340H432Z"  />
<glyph unicode="&#xAF;" horiz-adv-x="400" d="M233 526V566H494V526H233Z"  />
<glyph unicode="&#xB0;" horiz-adv-x="400" d="M445 544Q445 518 435 496T408 456T368 429T320 419Q294 419 272 429T232 456T205 495T195 544Q195 569 205 592T232 632T271 659T320 669Q345 669 368 659T408 632T435 592T445 544ZM412 544Q412 563 405 579T385 608T355 628T319 636Q281 636 255 609T228 544Q228 525 235 508T254 479T284 459T320 452Q339 452 355 459T384 478T404 508T412 544Z"  />
<glyph unicode="&#xB1;" horiz-adv-x="520" d="M297 298V443H350V298H545V245H350V100H297V245H102V298H297ZM545 53V0H102V53H545Z"  />
<glyph unicode="&#xB2;" horiz-adv-x="312" d="M366 394Q358 395 347 395T325 396Q262 396 210 396T109 394V402Q129 422 152 443T198 484L312 588Q340 614 355 638T371 690Q371 722 349 740T293 759Q277 759 262 754T234 740T215 717T207 688Q207 672 211 660T215 645Q215 642 211 642Q206 642 202 648T195 662T190 681T188 699Q188 722 197 740T223 770T260 789T304 796Q356 796 391 770T426 694Q426 669 415 648T385 609T346 575T304 543L170 441V439H314Q327 439 338 440T358 446T376 461T394 490H408L366 394Z"  />
<glyph unicode="&#xB3;" horiz-adv-x="312" d="M245 784Q281 796 320 796Q339 796 359 793T397 783T426 762T438 726Q438 706 429 692T404 667T371 648T337 633V631Q369 631 386 610T403 561Q403 537 393 516T367 478T329 446T287 423Q244 404 197 396T101 387L106 402Q142 405 179 411T249 433Q287 450 315 482T344 555Q344 584 325 596T277 609Q256 609 239 606T216 602Q211 602 208 603T204 609Q204 618 217 619T237 622Q257 624 283 629T334 645T374 672T391 712Q391 723 385 730T370 742T349 749T327 751Q304 751 280 747T234 735L245 784Z"  />
<glyph unicode="&#xB4;" horiz-adv-x="300" d="M312 574Q318 580 326 587T342 601T360 613T379 618Q391 618 400 609T410 587Q410 576 404 568T388 552T368 540T349 531L238 476H205L312 574Z"  />
<glyph unicode="&#xB5;" horiz-adv-x="560" d="M235 109Q231 98 226 80T221 50Q221 34 231 26T257 17Q284 17 310 40T358 95T395 157T415 203L490 426H564L526 300Q515 265 505 231T488 163T475 101T470 46Q470 38 473 28T487 17Q499 17 513 32T541 69T564 111T577 143L599 135Q591 114 580 89T552 41T515 3T469 -13Q436 -13 419 6T402 54Q402 64 403 84T407 124L405 126Q391 104 375 80T339 35T294 1T240 -13Q214 -13 198 -1L175 -133Q173 -147 170 -167T161 -205T142 -237T110 -250Q93 -250 82 -241T71 -217Q71 -212 73 -203T78 -186Q106 -84 123 -22T150 78T166 133T175 163L193 222Q213 287 222 321T231 379Q231 387 229 394T218 401Q204 401 188 385T156 346T128 301T109 267L88 277Q98 299 113 325T147 375T189 415T240 431Q255 431 266 425T285 408T297 384T301 357Q301 330 293 299T277 241L235 109Z"  />
<glyph unicode="&#xB6;" horiz-adv-x="500" d="M420 52Q417 40 412 23T403 -12T396 -46T393 -71Q393 -86 399 -94T415 -105T440 -110T470 -111L465 -133H306L516 625H459L249 -133H81L86 -111Q127 -110 150 -106T192 -79Q203 -65 213 -33T238 52L309 308Q274 308 244 311T190 326T154 362T140 428Q140 454 147 481T166 534T197 580T237 616Q274 640 319 650T410 661Q417 661 431 660T461 659T494 657T521 656Q526 656 548 656T597 657T649 659T684 660L678 638Q645 637 623 633T583 603Q576 592 569 575T556 540T545 503T537 472L420 52Z"  />
<glyph unicode="&#xB7;" horiz-adv-x="280" d="M220 166Q197 166 182 181T166 220Q166 242 181 258T220 275Q243 275 259 261T275 223Q275 200 261 183T220 166Z"  />
<glyph unicode="&#xB8;" horiz-adv-x="280" d="M139 -47Q162 -47 183 -60T204 -99Q204 -133 179 -149T123 -166Q113 -166 99 -164T73 -157T51 -143T42 -121Q42 -113 48 -106T63 -99Q73 -99 77 -104T84 -118Q88 -132 93 -138T114 -144Q133 -144 147 -132T162 -100Q162 -90 157 -84T143 -75T126 -70T107 -69L129 0H154L139 -47Z"  />
<glyph unicode="&#xB9;" horiz-adv-x="312" d="M314 534Q312 527 308 513T300 482T292 452T288 432Q288 415 304 412T355 408L351 395Q327 396 302 396T250 397Q225 397 201 397T153 395L157 408Q177 409 194 411T221 421Q229 429 235 447T245 480L308 701Q310 706 313 719T316 737Q316 750 307 752T286 755Q283 755 273 755T245 754L248 767Q325 772 391 800L314 534Z"  />
<glyph unicode="&#xBA;" horiz-adv-x="286" d="M242 400Q197 400 174 425T150 490Q150 516 161 547T191 606T239 651T300 669Q346 669 368 639T391 569Q391 543 380 513T348 458T301 417T242 400ZM243 420Q268 420 286 442T315 496T332 559T338 609Q338 623 329 636T303 649Q279 649 261 627T230 573T210 510T203 460Q203 443 213 432T243 420Z"  />
<glyph unicode="&#xBB;" horiz-adv-x="480" d="M336 326Q334 328 333 332T331 339Q331 346 337 346Q341 346 344 342T350 336L460 205L302 78Q300 76 291 69T278 61Q271 61 271 68Q271 72 279 80T290 91L399 207L336 326ZM172 326Q170 328 169 332T167 339Q167 346 173 346Q177 346 180 342T186 336L296 205L138 78Q136 76 127 69T114 61Q107 61 107 68Q107 72 115 80T126 91L235 207L172 326Z"  />
<glyph unicode="&#xBC;" horiz-adv-x="744" d="M261 397Q259 390 255 376T247 345T239 315T235 295Q235 278 251 275T302 271L298 258Q274 259 249 259T197 260Q172 260 148 260T100 258L104 271Q124 272 141 274T168 284Q176 292 182 310T192 343L255 564Q257 569 260 582T263 600Q263 613 254 615T233 618Q230 618 220 618T192 617L195 630Q272 635 338 663L261 397ZM255 0H214L692 669H733L255 0ZM720 167H742Q765 167 771 171T780 175Q783 175 783 172Q783 170 782 166T779 157L775 143H714L675 0H621L661 143H494L500 162L778 410H789L720 167ZM668 167L715 331L531 167H668Z"  />
<glyph unicode="&#xBD;" horiz-adv-x="744" d="M261 397Q259 390 255 376T247 345T239 315T235 295Q235 278 251 275T302 271L298 258Q274 259 249 259T197 260Q172 260 148 260T100 258L104 271Q124 272 141 274T168 284Q176 292 182 310T192 343L255 564Q257 569 260 582T263 600Q263 613 254 615T233 618Q230 618 220 618T192 617L195 630Q272 635 338 663L261 397ZM240 0H199L677 669H718L240 0ZM751 -2Q743 -1 732 -1T710 0Q647 0 595 0T494 -2V6Q514 26 537 47T583 88L697 192Q725 218 740 242T756 294Q756 326 734 344T678 363Q662 363 647 358T619 344T600 321T592 292Q592 276 596 264T600 249Q600 246 596 246Q591 246 587 252T580 266T575 285T573 303Q573 326 582 344T608 374T645 393T689 400Q741 400 776 374T811 298Q811 273 800 252T770 213T731 179T689 147L555 45V43H699Q712 43 723 44T743 50T761 65T779 94H793L751 -2Z"  />
<glyph unicode="&#xBE;" horiz-adv-x="744" d="M225 647Q261 659 300 659Q319 659 339 656T377 646T406 625T418 589Q418 569 409 555T384 530T351 511T317 496V494Q349 494 366 473T383 424Q383 400 373 379T347 341T309 309T267 286Q224 267 177 259T81 250L86 265Q122 268 159 274T229 296Q267 313 295 345T324 418Q324 447 305 459T257 472Q236 472 219 469T196 465Q191 465 188 466T184 472Q184 481 197 482T217 485Q237 487 263 492T314 508T354 535T371 575Q371 586 365 593T350 605T329 612T307 614Q284 614 260 610T214 598L225 647ZM255 0H214L692 669H733L255 0ZM720 167H742Q765 167 771 171T780 175Q783 175 783 172Q783 170 782 166T779 157L775 143H714L675 0H621L661 143H494L500 162L778 410H789L720 167ZM668 167L715 331L531 167H668Z"  />
<glyph unicode="&#xBF;" horiz-adv-x="440" d="M201 197Q218 216 241 228T290 240Q325 240 345 216T366 160Q366 127 347 101T304 53L248 2Q233 -11 219 -25T192 -55T173 -88T165 -126Q165 -172 191 -197T263 -223Q281 -223 298 -218T328 -202T350 -176T358 -142Q358 -119 342 -100T302 -80Q297 -80 290 -83T283 -92Q283 -98 292 -105T302 -131Q302 -145 292 -154T268 -164Q250 -164 239 -152T227 -121Q227 -91 251 -73T303 -55Q340 -55 364 -79T388 -139Q388 -166 377 -187T348 -223T307 -245T258 -253Q225 -253 197 -242T147 -212T113 -165T100 -103Q100 -78 108 -56T131 -13T162 26T198 59L231 87Q238 94 252 105T279 129T302 155T312 181Q312 194 303 202T280 210Q262 210 246 201T217 181L201 197ZM331 431Q354 431 369 416T385 377Q385 352 369 337T329 322Q306 322 291 338T276 377Q276 400 292 415T331 431Z"  />
<glyph unicode="&#xC0;" horiz-adv-x="640" d="M558 128Q559 121 561 109T565 83T571 59T578 41Q586 29 605 26T650 20L644 -2Q633 -2 613 -1T572 0T534 1T511 2Q506 2 489 2T452 1T412 -1T382 -2L387 20Q405 21 421 22T448 28T466 42T473 69Q473 83 471 99T467 129L445 273H251L207 190Q202 181 193 162T174 121T157 81T150 51Q150 40 158 34T179 25T205 21T231 20L225 -2Q216 -2 200 -1T167 0T134 1T111 2Q106 2 92 2T63 1T32 -1T9 -2L15 20Q40 24 57 31T93 58Q103 69 114 86T137 124T158 163T177 196L449 668H479L558 128ZM440 303L410 550H408L268 303H440ZM521 714L406 786Q395 793 382 802T369 827Q369 840 378 851T401 862Q411 862 420 856T439 840T455 822T469 806L549 714H521Z"  />
<glyph unicode="&#xC1;" horiz-adv-x="640" d="M558 128Q559 121 561 109T565 83T571 59T578 41Q586 29 605 26T650 20L644 -2Q633 -2 613 -1T572 0T534 1T511 2Q506 2 489 2T452 1T412 -1T382 -2L387 20Q405 21 421 22T448 28T466 42T473 69Q473 83 471 99T467 129L445 273H251L207 190Q202 181 193 162T174 121T157 81T150 51Q150 40 158 34T179 25T205 21T231 20L225 -2Q216 -2 200 -1T167 0T134 1T111 2Q106 2 92 2T63 1T32 -1T9 -2L15 20Q40 24 57 31T93 58Q103 69 114 86T137 124T158 163T177 196L449 668H479L558 128ZM440 303L410 550H408L268 303H440ZM482 812Q488 818 496 825T512 839T530 851T549 856Q561 856 570 847T580 825Q580 814 574 806T558 790T538 778T519 769L408 714H375L482 812Z"  />
<glyph unicode="&#xC2;" horiz-adv-x="640" d="M558 128Q559 121 561 109T565 83T571 59T578 41Q586 29 605 26T650 20L644 -2Q633 -2 613 -1T572 0T534 1T511 2Q506 2 489 2T452 1T412 -1T382 -2L387 20Q405 21 421 22T448 28T466 42T473 69Q473 83 471 99T467 129L445 273H251L207 190Q202 181 193 162T174 121T157 81T150 51Q150 40 158 34T179 25T205 21T231 20L225 -2Q216 -2 200 -1T167 0T134 1T111 2Q106 2 92 2T63 1T32 -1T9 -2L15 20Q40 24 57 31T93 58Q103 69 114 86T137 124T158 163T177 196L449 668H479L558 128ZM440 303L410 550H408L268 303H440ZM600 714H575L492 796L365 714H328L472 856H522L600 714Z"  />
<glyph unicode="&#xC3;" horiz-adv-x="640" d="M558 128Q559 121 561 109T565 83T571 59T578 41Q586 29 605 26T650 20L644 -2Q633 -2 613 -1T572 0T534 1T511 2Q506 2 489 2T452 1T412 -1T382 -2L387 20Q405 21 421 22T448 28T466 42T473 69Q473 83 471 99T467 129L445 273H251L207 190Q202 181 193 162T174 121T157 81T150 51Q150 40 158 34T179 25T205 21T231 20L225 -2Q216 -2 200 -1T167 0T134 1T111 2Q106 2 92 2T63 1T32 -1T9 -2L15 20Q40 24 57 31T93 58Q103 69 114 86T137 124T158 163T177 196L449 668H479L558 128ZM440 303L410 550H408L268 303H440ZM615 815Q613 801 606 786T588 759T564 739T534 731Q515 731 497 737T462 752T430 766T403 773Q385 773 375 763T357 738L333 741Q344 774 367 798T429 823Q444 823 461 817T495 803T526 789T551 783Q568 783 577 793T592 818L615 815Z"  />
<glyph unicode="&#xC4;" horiz-adv-x="640" d="M558 128Q559 121 561 109T565 83T571 59T578 41Q586 29 605 26T650 20L644 -2Q633 -2 613 -1T572 0T534 1T511 2Q506 2 489 2T452 1T412 -1T382 -2L387 20Q405 21 421 22T448 28T466 42T473 69Q473 83 471 99T467 129L445 273H251L207 190Q202 181 193 162T174 121T157 81T150 51Q150 40 158 34T179 25T205 21T231 20L225 -2Q216 -2 200 -1T167 0T134 1T111 2Q106 2 92 2T63 1T32 -1T9 -2L15 20Q40 24 57 31T93 58Q103 69 114 86T137 124T158 163T177 196L449 668H479L558 128ZM440 303L410 550H408L268 303H440ZM395 730Q375 730 361 744T346 778Q346 798 360 813T395 828Q415 828 429 814T444 779Q444 759 430 745T395 730ZM559 730Q539 730 525 744T510 778Q510 798 524 813T559 828Q579 828 593 814T608 779Q608 759 594 745T559 730Z"  />
<glyph unicode="&#xC5;" horiz-adv-x="640" d="M558 128Q559 121 561 109T565 83T571 59T578 41Q586 29 605 26T650 20L644 -2Q633 -2 613 -1T572 0T534 1T511 2Q506 2 489 2T452 1T412 -1T382 -2L387 20Q405 21 421 22T448 28T466 42T473 69Q473 83 471 99T467 129L445 273H251L207 190Q202 181 193 162T174 121T157 81T150 51Q150 40 158 34T179 25T205 21T231 20L225 -2Q216 -2 200 -1T167 0T134 1T111 2Q106 2 92 2T63 1T32 -1T9 -2L15 20Q40 24 57 31T93 58Q103 69 114 86T137 124T158 163T177 196L449 668H479L558 128ZM440 303L410 550H408L268 303H440ZM474 706Q453 706 434 714T401 735T379 767T370 807Q370 829 378 848T400 881T434 903T475 911Q497 911 515 903T548 881T570 847T578 807Q578 786 570 768T547 736T514 714T474 706ZM474 739Q502 739 522 759T542 807Q542 836 523 857T474 878Q445 878 426 857T406 807Q406 779 425 759T474 739Z"  />
<glyph unicode="&#xC6;" horiz-adv-x="894" d="M503 345L573 605L571 607L359 345H503ZM205 195Q219 214 247 249T311 328T384 418T452 503T502 571T522 606Q522 618 516 624T499 632T473 635T438 638L443 660Q456 660 481 659T534 658T585 657T620 656Q631 656 655 656T710 656T778 657T847 658T910 659T958 660L972 508H953Q940 553 925 578T890 617T848 634T798 638H675L603 366H680Q702 366 718 370T749 387T775 419T802 472H820L768 217H748Q749 230 749 242T750 266Q750 304 735 324T668 344H597L540 132Q536 119 533 106T530 79Q530 58 542 47T571 29T608 22T644 20H680Q725 20 757 28T813 55T855 101T893 170H916L870 -2Q848 -2 813 -2T736 -1T653 0T573 1T507 2T468 2Q461 2 442 2T401 1T357 -1T323 -2L328 20Q360 20 379 24T409 40T428 71T443 122L497 323H338Q329 311 312 290T275 243T233 189T195 134T167 87T156 52Q156 41 162 35T180 24T204 19T231 17L226 -2Q218 -2 203 -1T172 0T142 1T123 2Q118 2 106 2T78 1T49 -1T27 -2L32 17Q64 21 82 37T118 79L205 195Z"  />
<glyph unicode="&#xC7;" horiz-adv-x="628" d="M336 -9Q288 -3 249 17T183 70T141 146T126 241Q126 318 155 394T236 532T358 631T509 669Q533 669 553 666T592 656T629 639T668 617L703 653H713L675 467H655Q653 503 647 535T625 592T584 632T515 647Q468 647 429 625T357 566T300 482T260 386T235 288T226 202Q226 161 235 126T265 64T318 24T395 9Q445 9 480 26T543 70T591 134T633 209H654L601 -2H590L578 50Q553 32 530 20T482 1T432 -10T375 -13Q373 -13 370 -13T360 -12L349 -47Q372 -47 393 -60T414 -99Q414 -133 389 -149T333 -166Q323 -166 309 -164T283 -157T261 -143T252 -121Q252 -113 258 -106T273 -99Q283 -99 287 -104T294 -118Q298 -132 303 -138T324 -144Q343 -144 357 -132T372 -100Q372 -90 367 -84T353 -75T336 -70T317 -69L336 -9Z"  />
<glyph unicode="&#xC8;" horiz-adv-x="604" d="M38 20Q71 20 90 25T120 42T138 73T153 122L261 526Q262 532 265 542T271 564T276 585T278 601Q278 614 271 621T252 633T227 637T203 638L209 660Q216 660 231 659T263 658T299 657T334 656Q344 656 368 656T423 656T489 657T558 658T621 659T668 660L682 508H663Q652 547 639 572T607 612T567 632T518 638H385L313 366H390Q412 366 428 370T459 387T485 419T512 472H530L478 217H458Q459 230 459 242T460 266Q460 304 445 324T378 344H307L250 132Q246 119 243 106T240 79Q240 58 252 47T281 29T318 22T354 20H390Q435 20 467 28T523 55T565 101T603 170H626L580 -2Q557 -2 521 -2T442 -1T355 0T274 1T209 2T172 2Q166 2 148 2T107 1T64 -1T32 -2L38 20ZM517 714L402 786Q391 793 378 802T365 827Q365 840 374 851T397 862Q407 862 416 856T435 840T451 822T465 806L545 714H517Z"  />
<glyph unicode="&#xC9;" horiz-adv-x="604" d="M38 20Q71 20 90 25T120 42T138 73T153 122L261 526Q262 532 265 542T271 564T276 585T278 601Q278 614 271 621T252 633T227 637T203 638L209 660Q216 660 231 659T263 658T299 657T334 656Q344 656 368 656T423 656T489 657T558 658T621 659T668 660L682 508H663Q652 547 639 572T607 612T567 632T518 638H385L313 366H390Q412 366 428 370T459 387T485 419T512 472H530L478 217H458Q459 230 459 242T460 266Q460 304 445 324T378 344H307L250 132Q246 119 243 106T240 79Q240 58 252 47T281 29T318 22T354 20H390Q435 20 467 28T523 55T565 101T603 170H626L580 -2Q557 -2 521 -2T442 -1T355 0T274 1T209 2T172 2Q166 2 148 2T107 1T64 -1T32 -2L38 20ZM484 812Q490 818 498 825T514 839T532 851T551 856Q563 856 572 847T582 825Q582 814 576 806T560 790T540 778T521 769L410 714H377L484 812Z"  />
<glyph unicode="&#xCA;" horiz-adv-x="604" d="M38 20Q71 20 90 25T120 42T138 73T153 122L261 526Q262 532 265 542T271 564T276 585T278 601Q278 614 271 621T252 633T227 637T203 638L209 660Q216 660 231 659T263 658T299 657T334 656Q344 656 368 656T423 656T489 657T558 658T621 659T668 660L682 508H663Q652 547 639 572T607 612T567 632T518 638H385L313 366H390Q412 366 428 370T459 387T485 419T512 472H530L478 217H458Q459 230 459 242T460 266Q460 304 445 324T378 344H307L250 132Q246 119 243 106T240 79Q240 58 252 47T281 29T318 22T354 20H390Q435 20 467 28T523 55T565 101T603 170H626L580 -2Q557 -2 521 -2T442 -1T355 0T274 1T209 2T172 2Q166 2 148 2T107 1T64 -1T32 -2L38 20ZM596 714H571L488 796L361 714H324L468 856H518L596 714Z"  />
<glyph unicode="&#xCB;" horiz-adv-x="604" d="M38 20Q71 20 90 25T120 42T138 73T153 122L261 526Q262 532 265 542T271 564T276 585T278 601Q278 614 271 621T252 633T227 637T203 638L209 660Q216 660 231 659T263 658T299 657T334 656Q344 656 368 656T423 656T489 657T558 658T621 659T668 660L682 508H663Q652 547 639 572T607 612T567 632T518 638H385L313 366H390Q412 366 428 370T459 387T485 419T512 472H530L478 217H458Q459 230 459 242T460 266Q460 304 445 324T378 344H307L250 132Q246 119 243 106T240 79Q240 58 252 47T281 29T318 22T354 20H390Q435 20 467 28T523 55T565 101T603 170H626L580 -2Q557 -2 521 -2T442 -1T355 0T274 1T209 2T172 2Q166 2 148 2T107 1T64 -1T32 -2L38 20ZM391 730Q371 730 357 744T342 778Q342 798 356 813T391 828Q411 828 425 814T440 779Q440 759 426 745T391 730ZM555 730Q535 730 521 744T506 778Q506 798 520 813T555 828Q575 828 589 814T604 779Q604 759 590 745T555 730Z"  />
<glyph unicode="&#xCC;" horiz-adv-x="340" d="M243 130Q241 124 238 114T232 92T227 70T224 53Q224 30 246 26T311 20L304 -2Q293 -2 272 -1T229 0T188 1T163 2Q157 2 139 2T100 1T58 -1T26 -2L32 20Q65 20 84 25T114 41T132 72T148 122L264 526Q265 532 268 542T274 563T279 585T281 601Q281 627 257 632T192 638L198 660Q208 660 228 659T268 658T305 657T327 656Q335 656 356 656T401 657T447 659T482 660L476 638Q448 637 427 634T391 613Q386 607 380 592T367 558T357 523T349 497L243 130ZM422 714L307 786Q296 793 283 802T270 827Q270 840 279 851T302 862Q312 862 321 856T340 840T356 822T370 806L450 714H422Z"  />
<glyph unicode="&#xCD;" horiz-adv-x="340" d="M243 130Q241 124 238 114T232 92T227 70T224 53Q224 30 246 26T311 20L304 -2Q293 -2 272 -1T229 0T188 1T163 2Q157 2 139 2T100 1T58 -1T26 -2L32 20Q65 20 84 25T114 41T132 72T148 122L264 526Q265 532 268 542T274 563T279 585T281 601Q281 627 257 632T192 638L198 660Q208 660 228 659T268 658T305 657T327 656Q335 656 356 656T401 657T447 659T482 660L476 638Q448 637 427 634T391 613Q386 607 380 592T367 558T357 523T349 497L243 130ZM384 812Q390 818 398 825T414 839T432 851T451 856Q463 856 472 847T482 825Q482 814 476 806T460 790T440 778T421 769L310 714H277L384 812Z"  />
<glyph unicode="&#xCE;" horiz-adv-x="340" d="M243 130Q241 124 238 114T232 92T227 70T224 53Q224 30 246 26T311 20L304 -2Q293 -2 272 -1T229 0T188 1T163 2Q157 2 139 2T100 1T58 -1T26 -2L32 20Q65 20 84 25T114 41T132 72T148 122L264 526Q265 532 268 542T274 563T279 585T281 601Q281 627 257 632T192 638L198 660Q208 660 228 659T268 658T305 657T327 656Q335 656 356 656T401 657T447 659T482 660L476 638Q448 637 427 634T391 613Q386 607 380 592T367 558T357 523T349 497L243 130ZM497 714H472L389 796L262 714H225L369 856H419L497 714Z"  />
<glyph unicode="&#xCF;" horiz-adv-x="340" d="M243 130Q241 124 238 114T232 92T227 70T224 53Q224 30 246 26T311 20L304 -2Q293 -2 272 -1T229 0T188 1T163 2Q157 2 139 2T100 1T58 -1T26 -2L32 20Q65 20 84 25T114 41T132 72T148 122L264 526Q265 532 268 542T274 563T279 585T281 601Q281 627 257 632T192 638L198 660Q208 660 228 659T268 658T305 657T327 656Q335 656 356 656T401 657T447 659T482 660L476 638Q448 637 427 634T391 613Q386 607 380 592T367 558T357 523T349 497L243 130ZM297 730Q277 730 263 744T248 778Q248 798 262 813T297 828Q317 828 331 814T346 779Q346 759 332 745T297 730ZM461 730Q441 730 427 744T412 778Q412 798 426 813T461 828Q481 828 495 814T510 779Q510 759 496 745T461 730Z"  />
<glyph unicode="&#xD0;" horiz-adv-x="696" d="M211 334H128L140 366H220L262 526Q263 532 266 543T273 566T278 588T281 603Q281 622 263 630T212 638H193L199 660Q232 659 265 658T332 656Q347 656 380 658T451 660Q506 660 554 645T648 593Q696 554 719 500T742 385Q742 305 710 231T621 102Q558 41 490 20T340 -2Q291 -2 247 0T158 2Q126 2 95 1T32 -2L38 20H56Q83 20 99 26T124 46T140 77T154 122L211 334ZM316 366H448L436 334H307L267 185Q264 174 260 161T253 133T248 104T245 79Q245 58 254 46T278 28T310 21T344 20Q428 20 482 57T575 168Q607 228 624 297T642 435Q642 481 629 519T592 583T534 623T458 638Q451 638 441 638T422 637T404 635T391 631Q386 627 384 618T376 590L316 366Z"  />
<glyph unicode="&#xD1;" horiz-adv-x="700" d="M577 -18L300 540L222 250Q218 235 212 211T200 162T190 113T186 74Q186 55 193 45T212 29T240 23T274 20L268 -2Q259 -2 243 -1T208 0T173 1T150 2Q143 2 128 2T95 1T61 -1T35 -2L40 20Q73 24 96 32T136 72Q145 88 153 112T170 163T185 215T197 260L280 572Q268 595 260 608T241 627T216 635T174 638L180 660Q187 660 200 659T227 658T252 657T267 656Q271 656 281 656T302 657T324 659T341 660L607 123L695 450Q698 463 702 480T710 515T716 550T719 580Q719 600 713 611T695 628T667 635T633 638L639 660Q647 660 662 659T694 658T725 657T746 656Q752 656 767 656T800 657T833 659T858 660L853 638Q825 638 807 629T777 606T758 571T745 528L600 -18H577ZM679 815Q677 801 670 786T652 759T628 739T598 731Q579 731 561 737T526 752T494 766T467 773Q449 773 439 763T421 738L397 741Q408 774 431 798T493 823Q508 823 525 817T559 803T590 789T615 783Q632 783 641 793T656 818L679 815Z"  />
<glyph unicode="&#xD2;" horiz-adv-x="708" d="M510 669Q567 669 612 650T690 596T740 514T758 412Q758 336 727 260T643 124T518 25T367 -13Q309 -13 264 6T189 58T142 138T126 241Q126 292 139 343T178 442T237 531T315 603T407 651T510 669ZM523 647Q476 647 436 624T362 562T304 474T261 373T235 272T226 184Q226 152 233 121T257 64T300 24T364 9Q412 9 452 32T526 94T583 181T624 281T649 382T658 471Q658 500 650 531T625 588T583 630T523 647ZM605 714L490 786Q479 793 466 802T453 827Q453 840 462 851T485 862Q495 862 504 856T523 840T539 822T553 806L633 714H605Z"  />
<glyph unicode="&#xD3;" horiz-adv-x="708" d="M510 669Q567 669 612 650T690 596T740 514T758 412Q758 336 727 260T643 124T518 25T367 -13Q309 -13 264 6T189 58T142 138T126 241Q126 292 139 343T178 442T237 531T315 603T407 651T510 669ZM523 647Q476 647 436 624T362 562T304 474T261 373T235 272T226 184Q226 152 233 121T257 64T300 24T364 9Q412 9 452 32T526 94T583 181T624 281T649 382T658 471Q658 500 650 531T625 588T583 630T523 647ZM568 812Q574 818 582 825T598 839T616 851T635 856Q647 856 656 847T666 825Q666 814 660 806T644 790T624 778T605 769L494 714H461L568 812Z"  />
<glyph unicode="&#xD4;" horiz-adv-x="708" d="M510 669Q567 669 612 650T690 596T740 514T758 412Q758 336 727 260T643 124T518 25T367 -13Q309 -13 264 6T189 58T142 138T126 241Q126 292 139 343T178 442T237 531T315 603T407 651T510 669ZM523 647Q476 647 436 624T362 562T304 474T261 373T235 272T226 184Q226 152 233 121T257 64T300 24T364 9Q412 9 452 32T526 94T583 181T624 281T649 382T658 471Q658 500 650 531T625 588T583 630T523 647ZM688 714H663L580 796L453 714H416L560 856H610L688 714Z"  />
<glyph unicode="&#xD5;" horiz-adv-x="708" d="M510 669Q567 669 612 650T690 596T740 514T758 412Q758 336 727 260T643 124T518 25T367 -13Q309 -13 264 6T189 58T142 138T126 241Q126 292 139 343T178 442T237 531T315 603T407 651T510 669ZM523 647Q476 647 436 624T362 562T304 474T261 373T235 272T226 184Q226 152 233 121T257 64T300 24T364 9Q412 9 452 32T526 94T583 181T624 281T649 382T658 471Q658 500 650 531T625 588T583 630T523 647ZM702 815Q700 801 693 786T675 759T651 739T621 731Q602 731 584 737T549 752T517 766T490 773Q472 773 462 763T444 738L420 741Q431 774 454 798T516 823Q531 823 548 817T582 803T613 789T638 783Q655 783 664 793T679 818L702 815Z"  />
<glyph unicode="&#xD6;" horiz-adv-x="708" d="M510 669Q567 669 612 650T690 596T740 514T758 412Q758 336 727 260T643 124T518 25T367 -13Q309 -13 264 6T189 58T142 138T126 241Q126 292 139 343T178 442T237 531T315 603T407 651T510 669ZM523 647Q476 647 436 624T362 562T304 474T261 373T235 272T226 184Q226 152 233 121T257 64T300 24T364 9Q412 9 452 32T526 94T583 181T624 281T649 382T658 471Q658 500 650 531T625 588T583 630T523 647ZM482 730Q462 730 448 744T433 778Q433 798 447 813T482 828Q502 828 516 814T531 779Q531 759 517 745T482 730ZM646 730Q626 730 612 744T597 778Q597 798 611 813T646 828Q666 828 680 814T695 779Q695 759 681 745T646 730Z"  />
<glyph unicode="&#xD7;" horiz-adv-x="520" d="M130 378L168 415L323 259L479 415L517 378L361 222L517 66L479 29L323 185L168 29L130 66L286 222L130 378Z"  />
<glyph unicode="&#xD8;" horiz-adv-x="708" d="M367 -13Q310 -13 263 6L191 -112H146L229 24Q178 57 152 113T126 241Q126 292 139 343T178 442T237 531T315 603T407 651T510 669Q538 669 562 664T610 650L673 753H714L642 634Q697 601 727 543T758 412Q758 336 727 260T643 124T518 25T367 -13ZM523 647Q476 647 436 624T362 562T304 474T261 373T235 272T226 184Q226 152 233 122T255 68L593 622Q579 633 562 640T523 647ZM364 9Q412 9 452 32T526 94T583 181T624 281T649 382T658 471Q658 503 649 536T619 596L281 37Q297 24 317 17T364 9Z"  />
<glyph unicode="&#xD9;" horiz-adv-x="680" d="M243 526Q245 532 248 542T254 564T259 586T262 603Q262 615 255 622T236 632T208 637T174 638L180 660Q190 660 208 659T247 658T285 657T312 656Q319 656 339 656T382 657T428 659T462 660L456 638Q429 637 407 633T371 612Q365 604 359 589T347 556T337 522T329 496L268 267Q260 238 253 210T246 153Q246 120 258 95T291 52T339 26T398 17Q452 17 488 36T550 87T591 160T621 246Q628 270 641 317T668 416T691 514T701 581Q701 600 694 611T676 628T650 635T619 638L625 660Q638 659 654 659T686 658T713 657T732 656Q754 656 787 657T845 660L839 638Q809 638 791 630T761 605T742 568T728 520L676 334Q658 271 639 209T588 97T507 18T380 -13Q339 -13 299 -4T225 26T172 80T151 160Q151 192 162 230T182 300L243 526ZM593 714L478 786Q467 793 454 802T441 827Q441 840 450 851T473 862Q483 862 492 856T511 840T527 822T541 806L621 714H593Z"  />
<glyph unicode="&#xDA;" horiz-adv-x="680" d="M243 526Q245 532 248 542T254 564T259 586T262 603Q262 615 255 622T236 632T208 637T174 638L180 660Q190 660 208 659T247 658T285 657T312 656Q319 656 339 656T382 657T428 659T462 660L456 638Q429 637 407 633T371 612Q365 604 359 589T347 556T337 522T329 496L268 267Q260 238 253 210T246 153Q246 120 258 95T291 52T339 26T398 17Q452 17 488 36T550 87T591 160T621 246Q628 270 641 317T668 416T691 514T701 581Q701 600 694 611T676 628T650 635T619 638L625 660Q638 659 654 659T686 658T713 657T732 656Q754 656 787 657T845 660L839 638Q809 638 791 630T761 605T742 568T728 520L676 334Q658 271 639 209T588 97T507 18T380 -13Q339 -13 299 -4T225 26T172 80T151 160Q151 192 162 230T182 300L243 526ZM557 812Q563 818 571 825T587 839T605 851T624 856Q636 856 645 847T655 825Q655 814 649 806T633 790T613 778T594 769L483 714H450L557 812Z"  />
<glyph unicode="&#xDB;" horiz-adv-x="680" d="M243 526Q245 532 248 542T254 564T259 586T262 603Q262 615 255 622T236 632T208 637T174 638L180 660Q190 660 208 659T247 658T285 657T312 656Q319 656 339 656T382 657T428 659T462 660L456 638Q429 637 407 633T371 612Q365 604 359 589T347 556T337 522T329 496L268 267Q260 238 253 210T246 153Q246 120 258 95T291 52T339 26T398 17Q452 17 488 36T550 87T591 160T621 246Q628 270 641 317T668 416T691 514T701 581Q701 600 694 611T676 628T650 635T619 638L625 660Q638 659 654 659T686 658T713 657T732 656Q754 656 787 657T845 660L839 638Q809 638 791 630T761 605T742 568T728 520L676 334Q658 271 639 209T588 97T507 18T380 -13Q339 -13 299 -4T225 26T172 80T151 160Q151 192 162 230T182 300L243 526ZM685 714H660L577 796L450 714H413L557 856H607L685 714Z"  />
<glyph unicode="&#xDC;" horiz-adv-x="680" d="M243 526Q245 532 248 542T254 564T259 586T262 603Q262 615 255 622T236 632T208 637T174 638L180 660Q190 660 208 659T247 658T285 657T312 656Q319 656 339 656T382 657T428 659T462 660L456 638Q429 637 407 633T371 612Q365 604 359 589T347 556T337 522T329 496L268 267Q260 238 253 210T246 153Q246 120 258 95T291 52T339 26T398 17Q452 17 488 36T550 87T591 160T621 246Q628 270 641 317T668 416T691 514T701 581Q701 600 694 611T676 628T650 635T619 638L625 660Q638 659 654 659T686 658T713 657T732 656Q754 656 787 657T845 660L839 638Q809 638 791 630T761 605T742 568T728 520L676 334Q658 271 639 209T588 97T507 18T380 -13Q339 -13 299 -4T225 26T172 80T151 160Q151 192 162 230T182 300L243 526ZM475 730Q455 730 441 744T426 778Q426 798 440 813T475 828Q495 828 509 814T524 779Q524 759 510 745T475 730ZM639 730Q619 730 605 744T590 778Q590 798 604 813T639 828Q659 828 673 814T688 779Q688 759 674 745T639 730Z"  />
<glyph unicode="&#xDD;" horiz-adv-x="580" d="M314 299L241 546Q236 562 230 582T216 615Q206 629 190 633T150 638L156 660Q166 660 184 659T222 658T256 657T276 656Q280 656 296 656T333 657T372 659T402 660L396 638Q381 638 368 637T346 633T330 623T324 604Q324 591 328 576L401 323Q410 335 429 356T472 405T520 461T565 518T599 567T612 602Q612 614 606 621T590 631T566 636T538 638L544 660Q551 660 565 659T595 658T622 657T639 656Q643 656 656 656T685 657T716 659T740 660L734 638Q715 638 701 631T669 603Q663 596 651 581T631 556L407 284L359 104Q355 90 352 77T349 55Q349 30 372 25T437 20L432 -2Q420 -2 398 -1T352 0T308 1T279 2Q274 2 257 2T219 1T178 -1T147 -2L152 20Q184 20 203 24T233 40T252 70T267 122L314 299ZM486 812Q492 818 500 825T516 839T534 851T553 856Q565 856 574 847T584 825Q584 814 578 806T562 790T542 778T523 769L412 714H379L486 812Z"  />
<glyph unicode="&#xDE;" horiz-adv-x="577" d="M199 660Q209 660 227 659T264 658T301 657T328 656Q336 656 356 656T401 657T448 659T483 660L477 638Q451 637 428 634T392 613Q381 598 372 570T356 518L352 504Q373 505 380 505T394 505Q434 505 478 499T559 477T620 429T644 349Q644 291 617 253T546 193T450 161T348 152Q339 152 326 152T299 153T274 155T259 157L252 131Q250 123 247 112T240 90T235 69T233 53Q233 30 255 26T320 20L313 -2Q302 -2 281 -1T238 0T196 1T170 2Q164 2 146 2T107 1T64 -1T32 -2L38 20Q70 20 89 24T119 40T138 71T154 122L256 504Q260 517 264 532T272 561T278 586T281 603Q281 615 274 622T255 632T227 637T193 638L199 660ZM265 181Q269 180 278 179T298 178T317 177T331 176Q376 176 414 188T482 224T527 284T544 368Q544 399 533 421T502 456T458 476T406 483Q401 483 392 483T374 481T356 476T343 466Q340 461 337 448T332 429L265 181Z"  />
<glyph unicode="&#xDF;" horiz-adv-x="460" d="M322 369Q322 377 329 379T343 383Q374 387 395 407T428 454T446 511T452 569Q452 582 451 597T444 625T428 646T400 654Q381 654 368 639T343 597T323 537T305 464L200 44Q193 17 185 -17T164 -85T135 -153T96 -212T45 -254T-21 -270Q-33 -270 -48 -267T-75 -258T-96 -241T-105 -215Q-105 -203 -98 -195T-79 -186Q-62 -186 -56 -197T-45 -222Q-41 -234 -36 -241T-16 -248Q1 -248 14 -240T37 -218T53 -190T64 -161Q82 -104 97 -53T127 52L241 493Q247 516 259 547T290 607T338 656T404 676Q433 676 455 665T493 636T516 592T524 540Q524 467 481 423T369 368V366Q427 358 454 321T482 225Q482 190 469 149T432 71T375 11T301 -13Q276 -13 255 -2T234 39Q234 54 241 66T266 79Q279 79 286 71T294 50Q294 37 290 32T285 21Q285 16 287 13T295 9Q305 9 315 17T335 36T352 59T363 78Q372 96 380 119T395 167T406 216T410 262Q410 289 404 305T387 331T366 346T345 353T329 359T322 369Z"  />
<glyph unicode="&#xE0;" horiz-adv-x="500" d="M370 409Q345 409 320 390T272 341T229 274T195 199T172 130T163 77Q163 66 165 54T174 32T189 16T212 9Q239 9 261 24T302 63T334 113T359 161Q368 180 378 205T397 256T411 309T417 356Q417 376 405 392T370 409ZM453 418H524L480 299Q473 280 462 246T440 173T422 99T414 41Q414 34 416 26T427 17Q439 17 454 33T482 72T507 118T524 153L545 144Q534 122 522 95T493 44T456 4T406 -13Q379 -13 363 2T346 44Q346 59 349 73T355 101L353 103Q341 82 326 62T293 25T252 -2T204 -13Q179 -13 158 -4T122 22T99 59T91 105Q91 137 101 174T130 247T174 316T229 375T293 416T362 431Q390 431 409 417T438 377L453 418ZM451 476L336 548Q325 555 312 564T299 589Q299 602 308 613T331 624Q341 624 350 618T369 602T385 584T399 568L479 476H451Z"  />
<glyph unicode="&#xE1;" horiz-adv-x="500" d="M370 409Q345 409 320 390T272 341T229 274T195 199T172 130T163 77Q163 66 165 54T174 32T189 16T212 9Q239 9 261 24T302 63T334 113T359 161Q368 180 378 205T397 256T411 309T417 356Q417 376 405 392T370 409ZM453 418H524L480 299Q473 280 462 246T440 173T422 99T414 41Q414 34 416 26T427 17Q439 17 454 33T482 72T507 118T524 153L545 144Q534 122 522 95T493 44T456 4T406 -13Q379 -13 363 2T346 44Q346 59 349 73T355 101L353 103Q341 82 326 62T293 25T252 -2T204 -13Q179 -13 158 -4T122 22T99 59T91 105Q91 137 101 174T130 247T174 316T229 375T293 416T362 431Q390 431 409 417T438 377L453 418ZM417 574Q423 580 431 587T447 601T465 613T484 618Q496 618 505 609T515 587Q515 576 509 568T493 552T473 540T454 531L343 476H310L417 574Z"  />
<glyph unicode="&#xE2;" horiz-adv-x="500" d="M370 409Q345 409 320 390T272 341T229 274T195 199T172 130T163 77Q163 66 165 54T174 32T189 16T212 9Q239 9 261 24T302 63T334 113T359 161Q368 180 378 205T397 256T411 309T417 356Q417 376 405 392T370 409ZM453 418H524L480 299Q473 280 462 246T440 173T422 99T414 41Q414 34 416 26T427 17Q439 17 454 33T482 72T507 118T524 153L545 144Q534 122 522 95T493 44T456 4T406 -13Q379 -13 363 2T346 44Q346 59 349 73T355 101L353 103Q341 82 326 62T293 25T252 -2T204 -13Q179 -13 158 -4T122 22T99 59T91 105Q91 137 101 174T130 247T174 316T229 375T293 416T362 431Q390 431 409 417T438 377L453 418ZM530 476H505L422 558L295 476H258L402 618H452L530 476Z"  />
<glyph unicode="&#xE3;" horiz-adv-x="500" d="M370 409Q345 409 320 390T272 341T229 274T195 199T172 130T163 77Q163 66 165 54T174 32T189 16T212 9Q239 9 261 24T302 63T334 113T359 161Q368 180 378 205T397 256T411 309T417 356Q417 376 405 392T370 409ZM453 418H524L480 299Q473 280 462 246T440 173T422 99T414 41Q414 34 416 26T427 17Q439 17 454 33T482 72T507 118T524 153L545 144Q534 122 522 95T493 44T456 4T406 -13Q379 -13 363 2T346 44Q346 59 349 73T355 101L353 103Q341 82 326 62T293 25T252 -2T204 -13Q179 -13 158 -4T122 22T99 59T91 105Q91 137 101 174T130 247T174 316T229 375T293 416T362 431Q390 431 409 417T438 377L453 418ZM550 577Q548 563 541 548T523 521T499 501T469 493Q450 493 432 499T397 514T365 528T338 535Q320 535 310 525T292 500L268 503Q279 536 302 560T364 585Q379 585 396 579T430 565T461 551T486 545Q503 545 512 555T527 580L550 577Z"  />
<glyph unicode="&#xE4;" horiz-adv-x="500" d="M370 409Q345 409 320 390T272 341T229 274T195 199T172 130T163 77Q163 66 165 54T174 32T189 16T212 9Q239 9 261 24T302 63T334 113T359 161Q368 180 378 205T397 256T411 309T417 356Q417 376 405 392T370 409ZM453 418H524L480 299Q473 280 462 246T440 173T422 99T414 41Q414 34 416 26T427 17Q439 17 454 33T482 72T507 118T524 153L545 144Q534 122 522 95T493 44T456 4T406 -13Q379 -13 363 2T346 44Q346 59 349 73T355 101L353 103Q341 82 326 62T293 25T252 -2T204 -13Q179 -13 158 -4T122 22T99 59T91 105Q91 137 101 174T130 247T174 316T229 375T293 416T362 431Q390 431 409 417T438 377L453 418ZM330 492Q310 492 296 506T281 540Q281 560 295 575T330 590Q350 590 364 576T379 541Q379 521 365 507T330 492ZM494 492Q474 492 460 506T445 540Q445 560 459 575T494 590Q514 590 528 576T543 541Q543 521 529 507T494 492Z"  />
<glyph unicode="&#xE5;" horiz-adv-x="500" d="M370 409Q345 409 320 390T272 341T229 274T195 199T172 130T163 77Q163 66 165 54T174 32T189 16T212 9Q239 9 261 24T302 63T334 113T359 161Q368 180 378 205T397 256T411 309T417 356Q417 376 405 392T370 409ZM453 418H524L480 299Q473 280 462 246T440 173T422 99T414 41Q414 34 416 26T427 17Q439 17 454 33T482 72T507 118T524 153L545 144Q534 122 522 95T493 44T456 4T406 -13Q379 -13 363 2T346 44Q346 59 349 73T355 101L353 103Q341 82 326 62T293 25T252 -2T204 -13Q179 -13 158 -4T122 22T99 59T91 105Q91 137 101 174T130 247T174 316T229 375T293 416T362 431Q390 431 409 417T438 377L453 418ZM408 468Q387 468 368 476T335 497T313 529T304 569Q304 591 312 610T334 643T368 665T409 673Q431 673 449 665T482 643T504 609T512 569Q512 548 504 530T481 498T448 476T408 468ZM408 501Q436 501 456 521T476 569Q476 598 457 619T408 640Q379 640 360 619T340 569Q340 541 359 521T408 501Z"  />
<glyph unicode="&#xE6;" horiz-adv-x="594" d="M419 185Q446 197 477 215T536 258T581 313T599 376Q599 391 591 400T568 409Q541 409 516 382T472 319T439 244T419 185ZM530 422Q542 426 553 428T581 431Q613 431 633 413T654 362Q654 323 630 292T571 236T497 195T428 165L411 158Q404 135 399 113T394 66Q394 43 405 26T443 9Q467 9 488 20T529 50T564 89T594 129L612 116Q597 93 579 70T538 29T490 -1T434 -13Q389 -13 361 9T324 71Q310 55 294 40T260 13T222 -6T180 -13Q133 -13 112 18T91 94Q91 130 101 162T129 224T171 279T223 324Q278 364 337 383T462 410L530 422ZM483 395Q421 390 365 366T264 296Q244 276 226 250T193 196T171 137T163 78Q163 68 164 58T170 38T183 23T203 17Q217 17 234 26T267 48T298 77T320 104Q330 197 372 266T484 394L483 395Z"  />
<glyph unicode="&#xE7;" horiz-adv-x="360" d="M195 -13Q169 -10 150 1T117 31T98 71T91 120Q91 151 100 186T126 255T166 322T217 378T277 416T343 431Q356 431 369 428T394 417T412 400T419 374Q419 358 409 345T381 332Q367 332 357 342T347 367Q347 379 352 385T358 397Q358 405 350 407T336 409Q311 409 289 390T247 340T212 271T186 197T169 129T163 80Q163 54 176 32T219 9Q245 9 266 21T305 52T336 93T361 137L381 125Q369 101 353 78T317 35T273 4T220 -12L209 -47Q232 -47 253 -60T274 -99Q274 -133 249 -149T193 -166Q183 -166 169 -164T143 -157T121 -143T112 -121Q112 -113 118 -106T133 -99Q143 -99 147 -104T154 -118Q158 -132 163 -138T184 -144Q203 -144 217 -132T232 -100Q232 -90 227 -84T213 -75T195 -70T177 -69L195 -13Z"  />
<glyph unicode="&#xE8;" horiz-adv-x="363" d="M381 116Q366 93 348 70T307 29T259 -1T203 -13Q150 -13 121 18T91 101Q91 132 100 169T127 242T168 313T221 373T283 415T351 431Q382 431 402 413T423 362Q423 323 399 292T340 236T265 195T196 165L180 158Q173 136 168 113T163 66Q163 43 174 26T212 9Q236 9 257 20T298 50T333 89T363 129L381 116ZM188 185Q215 197 246 215T305 258T350 313T368 376Q368 391 360 400T337 409Q319 409 302 397T270 364T241 320T218 270T200 223T188 185ZM405 476L290 548Q279 555 266 564T253 589Q253 602 262 613T285 624Q295 624 304 618T323 602T339 584T353 568L433 476H405Z"  />
<glyph unicode="&#xE9;" horiz-adv-x="363" d="M381 116Q366 93 348 70T307 29T259 -1T203 -13Q150 -13 121 18T91 101Q91 132 100 169T127 242T168 313T221 373T283 415T351 431Q382 431 402 413T423 362Q423 323 399 292T340 236T265 195T196 165L180 158Q173 136 168 113T163 66Q163 43 174 26T212 9Q236 9 257 20T298 50T333 89T363 129L381 116ZM188 185Q215 197 246 215T305 258T350 313T368 376Q368 391 360 400T337 409Q319 409 302 397T270 364T241 320T218 270T200 223T188 185ZM374 574Q380 580 388 587T404 601T422 613T441 618Q453 618 462 609T472 587Q472 576 466 568T450 552T430 540T411 531L300 476H267L374 574Z"  />
<glyph unicode="&#xEA;" horiz-adv-x="363" d="M381 116Q366 93 348 70T307 29T259 -1T203 -13Q150 -13 121 18T91 101Q91 132 100 169T127 242T168 313T221 373T283 415T351 431Q382 431 402 413T423 362Q423 323 399 292T340 236T265 195T196 165L180 158Q173 136 168 113T163 66Q163 43 174 26T212 9Q236 9 257 20T298 50T333 89T363 129L381 116ZM188 185Q215 197 246 215T305 258T350 313T368 376Q368 391 360 400T337 409Q319 409 302 397T270 364T241 320T218 270T200 223T188 185ZM469 476H444L361 558L234 476H197L341 618H391L469 476Z"  />
<glyph unicode="&#xEB;" horiz-adv-x="363" d="M381 116Q366 93 348 70T307 29T259 -1T203 -13Q150 -13 121 18T91 101Q91 132 100 169T127 242T168 313T221 373T283 415T351 431Q382 431 402 413T423 362Q423 323 399 292T340 236T265 195T196 165L180 158Q173 136 168 113T163 66Q163 43 174 26T212 9Q236 9 257 20T298 50T333 89T363 129L381 116ZM188 185Q215 197 246 215T305 258T350 313T368 376Q368 391 360 400T337 409Q319 409 302 397T270 364T241 320T218 270T200 223T188 185ZM264 492Q244 492 230 506T215 540Q215 560 229 575T264 590Q284 590 298 576T313 541Q313 521 299 507T264 492ZM428 492Q408 492 394 506T379 540Q379 560 393 575T428 590Q448 590 462 576T477 541Q477 521 463 507T428 492Z"  />
<glyph unicode="&#xEC;" horiz-adv-x="280" d="M185 264Q188 271 194 287T206 321T216 355T221 381Q221 389 217 395T204 401Q192 401 178 388T151 357T126 321T110 292L90 303Q102 323 115 345T145 387T181 418T224 431Q253 431 269 410T286 363Q286 345 281 325T269 285T254 246T239 210L207 129Q205 123 200 110T190 82T181 54T177 34Q177 28 181 23T192 17Q206 17 222 31T254 65T281 105T299 137L319 127Q310 107 296 83T263 38T223 2T177 -13Q146 -13 129 8T112 59Q112 75 116 92T128 127T142 162T156 194L185 264ZM311 476L196 548Q185 555 172 564T159 589Q159 602 168 613T191 624Q201 624 210 618T229 602T245 584T259 568L339 476H311Z"  />
<glyph unicode="&#xED;" horiz-adv-x="280" d="M185 264Q188 271 194 287T206 321T216 355T221 381Q221 389 217 395T204 401Q192 401 178 388T151 357T126 321T110 292L90 303Q102 323 115 345T145 387T181 418T224 431Q253 431 269 410T286 363Q286 345 281 325T269 285T254 246T239 210L207 129Q205 123 200 110T190 82T181 54T177 34Q177 28 181 23T192 17Q206 17 222 31T254 65T281 105T299 137L319 127Q310 107 296 83T263 38T223 2T177 -13Q146 -13 129 8T112 59Q112 75 116 92T128 127T142 162T156 194L185 264ZM302 574Q308 580 316 587T332 601T350 613T369 618Q381 618 390 609T400 587Q400 576 394 568T378 552T358 540T339 531L228 476H195L302 574Z"  />
<glyph unicode="&#xEE;" horiz-adv-x="280" d="M185 264Q188 271 194 287T206 321T216 355T221 381Q221 389 217 395T204 401Q192 40</font>
</defs>
</svg>
